<?xml version="1.0" encoding="UTF-8" standalone="no"?>
<svg
   width="204"
   height="70"
   viewBox="0 0 204 70"
   version="1.1"
   id="svg591"
   sodipodi:docname="logo.svg"
   inkscape:version="1.2.2 (1:1.2.2+202305151914+b0a8486541)"
   xml:space="preserve"
   xmlns:inkscape="http://www.inkscape.org/namespaces/inkscape"
   xmlns:sodipodi="http://sodipodi.sourceforge.net/DTD/sodipodi-0.dtd"
   xmlns:xlink="http://www.w3.org/1999/xlink"
   xmlns="http://www.w3.org/2000/svg"
   xmlns:svg="http://www.w3.org/2000/svg"><sodipodi:namedview
     id="namedview593"
     pagecolor="#ffffff"
     bordercolor="#000000"
     borderopacity="0.25"
     inkscape:showpageshadow="2"
     inkscape:pageopacity="0.0"
     inkscape:pagecheckerboard="0"
     inkscape:deskcolor="#d1d1d1"
     showgrid="false"
     inkscape:zoom="4"
     inkscape:cx="86.75"
     inkscape:cy="90.125"
     inkscape:window-width="1920"
     inkscape:window-height="1016"
     inkscape:window-x="0"
     inkscape:window-y="27"
     inkscape:window-maximized="1"
     inkscape:current-layer="svg591" /><defs
     id="defs583"><linearGradient
       inkscape:collect="always"
       id="linearGradient149521"><stop
         style="stop-color:#28220b;stop-opacity:1;"
         offset="0"
         id="stop149517" /><stop
         style="stop-color:#3efccd;stop-opacity:1;"
         offset="1"
         id="stop149519" /></linearGradient><linearGradient
       inkscape:collect="always"
       id="linearGradient148787"><stop
         style="stop-color:#fe8464;stop-opacity:1;"
         offset="0"
         id="stop148783" /><stop
         style="stop-color:#ff3b3b;stop-opacity:1;"
         offset="1"
         id="stop148785" /></linearGradient><linearGradient
       id="linear-gradient"
       x1="6.6274042"
       x2="16.900385"
       y2="9.6102076"
       gradientUnits="userSpaceOnUse"
       gradientTransform="matrix(0.59624807,0.34424398,-0.7262291,1.2578657,9.6260002,1.198)"
       y1="0"><stop
         offset="0"
         stop-color="#fe8464"
         id="stop578" /><stop
         offset="1"
         stop-color="#fe6e9a"
         id="stop580" /></linearGradient><clipPath
       clipPathUnits="userSpaceOnUse"
       id="clipPath89927"><g
         id="g89933"><g
           id="g89931"><path
             d="M 0,500 H 500 V 0 H 0 Z"
             id="path89929" /></g></g></clipPath><clipPath
       clipPathUnits="userSpaceOnUse"
       id="clipPath89942"><g
         id="g89948"><g
           id="g89946"><path
             d="M 0,500 H 500 V 0 H 0 Z"
             id="path89944" /></g></g></clipPath><clipPath
       clipPathUnits="userSpaceOnUse"
       id="clipPath90137"><g
         id="g90143"><g
           id="g90141"><path
             d="M 0,500 H 500 V 0 H 0 Z"
             id="path90139" /></g></g></clipPath><clipPath
       clipPathUnits="userSpaceOnUse"
       id="clipPath90077"><g
         id="g90083"><g
           id="g90081"><path
             d="M 0,500 H 500 V 0 H 0 Z"
             id="path90079" /></g></g></clipPath><clipPath
       clipPathUnits="userSpaceOnUse"
       id="clipPath89957"><g
         id="g89963"><g
           id="g89961"><path
             d="M 0,500 H 500 V 0 H 0 Z"
             id="path89959" /></g></g></clipPath><clipPath
       clipPathUnits="userSpaceOnUse"
       id="clipPath89912"><g
         id="g89918"><g
           id="g89916"><path
             d="M 0,500 H 500 V 0 H 0 Z"
             id="path89914" /></g></g></clipPath><clipPath
       clipPathUnits="userSpaceOnUse"
       id="clipPath90017"><g
         id="g90023"><g
           id="g90021"><path
             d="M 0,500 H 500 V 0 H 0 Z"
             id="path90019" /></g></g></clipPath><clipPath
       clipPathUnits="userSpaceOnUse"
       id="clipPath89972"><g
         id="g89978"><g
           id="g89976"><path
             d="M 0,500 H 500 V 0 H 0 Z"
             id="path89974" /></g></g></clipPath><clipPath
       clipPathUnits="userSpaceOnUse"
       id="clipPath90002"><g
         id="g90008"><g
           id="g90006"><path
             d="M 0,500 H 500 V 0 H 0 Z"
             id="path90004" /></g></g></clipPath><clipPath
       clipPathUnits="userSpaceOnUse"
       id="clipPath90092"><g
         id="g90098"><g
           id="g90096"><path
             d="M 0,500 H 500 V 0 H 0 Z"
             id="path90094" /></g></g></clipPath><clipPath
       clipPathUnits="userSpaceOnUse"
       id="clipPath90107"><g
         id="g90113"><g
           id="g90111"><path
             d="M 0,500 H 500 V 0 H 0 Z"
             id="path90109" /></g></g></clipPath><clipPath
       clipPathUnits="userSpaceOnUse"
       id="clipPath90122"><g
         id="g90128"><g
           id="g90126"><path
             d="M 0,500 H 500 V 0 H 0 Z"
             id="path90124" /></g></g></clipPath><clipPath
       clipPathUnits="userSpaceOnUse"
       id="clipPath89987"><g
         id="g89993"><g
           id="g89991"><path
             d="M 0,500 H 500 V 0 H 0 Z"
             id="path89989" /></g></g></clipPath><clipPath
       clipPathUnits="userSpaceOnUse"
       id="clipPath90032"><g
         id="g90038"><g
           id="g90036"><path
             d="M 0,500 H 500 V 0 H 0 Z"
             id="path90034" /></g></g></clipPath><clipPath
       clipPathUnits="userSpaceOnUse"
       id="clipPath90047"><g
         id="g90053"><g
           id="g90051"><path
             d="M 0,500 H 500 V 0 H 0 Z"
             id="path90049" /></g></g></clipPath><clipPath
       clipPathUnits="userSpaceOnUse"
       id="clipPath90062"><g
         id="g90068"><g
           id="g90066"><path
             d="M 0,500 H 500 V 0 H 0 Z"
             id="path90064" /></g></g></clipPath><clipPath
       clipPathUnits="userSpaceOnUse"
       id="clipPath90182"><g
         id="g90188"><g
           id="g90186"><path
             d="M 0,500 H 500 V 0 H 0 Z"
             id="path90184" /></g></g></clipPath><clipPath
       clipPathUnits="userSpaceOnUse"
       id="clipPath90152"><g
         id="g90158"><g
           id="g90156"><path
             d="M 0,500 H 500 V 0 H 0 Z"
             id="path90154" /></g></g></clipPath><clipPath
       clipPathUnits="userSpaceOnUse"
       id="clipPath90167"><g
         id="g90173"><g
           id="g90171"><path
             d="M 0,500 H 500 V 0 H 0 Z"
             id="path90169" /></g></g></clipPath><clipPath
       clipPathUnits="userSpaceOnUse"
       id="clipPath90197"><g
         id="g90203"><g
           id="g90201"><path
             d="M 0,500 H 500 V 0 H 0 Z"
             id="path90199" /></g></g></clipPath><clipPath
       clipPathUnits="userSpaceOnUse"
       id="clipPath97613"><rect
         style="fill:#001244;fill-opacity:1;stroke:none;stroke-width:0.1;stroke-dasharray:none;stroke-opacity:1"
         id="rect97615"
         width="18.129799"
         height="38.988815"
         x="-19.884296"
         y="36.324581" /></clipPath><clipPath
       clipPathUnits="userSpaceOnUse"
       id="clipPath97725"><rect
         style="fill:none;fill-opacity:1;stroke:#00ff00;stroke-width:0.1;stroke-dasharray:none;stroke-opacity:1"
         id="rect97727"
         width="10.299545"
         height="23.39329"
         x="-12.054042"
         y="44.967102" /></clipPath><clipPath
       clipPathUnits="userSpaceOnUse"
       id="clipPath97980"><rect
         style="fill:none;fill-opacity:1;stroke:#000000;stroke-width:0.04;stroke-dasharray:none;stroke-opacity:1"
         id="rect97982"
         width="2.0676942"
         height="3.561029"
         x="-3.8367214"
         y="63.937698" /></clipPath><clipPath
       clipPathUnits="userSpaceOnUse"
       id="clipPath97990"><rect
         style="fill:none;fill-opacity:1;stroke:#000000;stroke-width:0.04;stroke-dasharray:none;stroke-opacity:1"
         id="rect97992"
         width="2.4927201"
         height="2.2974379"
         x="27.413723"
         y="57.858559"
         ry="0"
         transform="rotate(27.982287)" /></clipPath><linearGradient
       inkscape:collect="always"
       xlink:href="#linearGradient148787"
       id="linearGradient148789"
       x1="376.11417"
       y1="58.219612"
       x2="399.13535"
       y2="58.219612"
       gradientUnits="userSpaceOnUse" /><linearGradient
       inkscape:collect="always"
       xlink:href="#linearGradient149521"
       id="linearGradient149523"
       x1="373.4787"
       y1="59.543629"
       x2="403.00186"
       y2="59.543629"
       gradientUnits="userSpaceOnUse" /><linearGradient
       inkscape:collect="always"
       xlink:href="#linearGradient148787"
       id="linearGradient726"
       gradientUnits="userSpaceOnUse"
       x1="376.11417"
       y1="58.219612"
       x2="399.13535"
       y2="58.219612" /><linearGradient
       inkscape:collect="always"
       xlink:href="#linearGradient148787"
       id="linearGradient728"
       gradientUnits="userSpaceOnUse"
       x1="376.11417"
       y1="58.219612"
       x2="399.13535"
       y2="58.219612" /><linearGradient
       inkscape:collect="always"
       xlink:href="#linearGradient148787"
       id="linearGradient730"
       gradientUnits="userSpaceOnUse"
       x1="376.11417"
       y1="58.219612"
       x2="399.13535"
       y2="58.219612" /><linearGradient
       inkscape:collect="always"
       xlink:href="#linearGradient148787"
       id="linearGradient732"
       gradientUnits="userSpaceOnUse"
       x1="376.11417"
       y1="58.219612"
       x2="399.13535"
       y2="58.219612" /><linearGradient
       inkscape:collect="always"
       xlink:href="#linearGradient148787"
       id="linearGradient734"
       gradientUnits="userSpaceOnUse"
       x1="376.11417"
       y1="58.219612"
       x2="399.13535"
       y2="58.219612" /><linearGradient
       inkscape:collect="always"
       xlink:href="#linearGradient149521"
       id="linearGradient736"
       gradientUnits="userSpaceOnUse"
       x1="373.4787"
       y1="59.543629"
       x2="403.00186"
       y2="59.543629" /><linearGradient
       inkscape:collect="always"
       xlink:href="#linearGradient149521"
       id="linearGradient738"
       gradientUnits="userSpaceOnUse"
       x1="373.4787"
       y1="59.543629"
       x2="403.00186"
       y2="59.543629" /><linearGradient
       inkscape:collect="always"
       xlink:href="#linearGradient149521"
       id="linearGradient740"
       gradientUnits="userSpaceOnUse"
       x1="373.4787"
       y1="59.543629"
       x2="403.00186"
       y2="59.543629" /><linearGradient
       inkscape:collect="always"
       xlink:href="#linearGradient149521"
       id="linearGradient742"
       gradientUnits="userSpaceOnUse"
       x1="373.4787"
       y1="59.543629"
       x2="403.00186"
       y2="59.543629" /><linearGradient
       inkscape:collect="always"
       xlink:href="#linearGradient149521"
       id="linearGradient744"
       gradientUnits="userSpaceOnUse"
       x1="373.4787"
       y1="59.543629"
       x2="403.00186"
       y2="59.543629" /></defs><text
     id="BASIC"
     fill="#ffffff"
     font-size="24px"
     font-family="Helvetica-Bold, Helvetica"
     font-weight="700"
     x="58.313904"
     y="54.367638"
     style="font-style:normal;font-variant:normal;font-weight:bold;font-stretch:normal;font-size:24px;font-family:sans-serif;-inkscape-font-specification:'sans-serif, Bold';font-variant-ligatures:normal;font-variant-caps:normal;font-variant-numeric:normal;font-variant-east-asian:normal;fill:#ffffff;fill-opacity:0.95686275"><tspan
       sodipodi:role="line"
       id="tspan102658"
       x="58.313904"
       y="54.367638">ARCHYTAS</tspan></text><g
     id="g93428"
     transform="translate(-358.36303,106.62533)"><path
       d="m 204.8687,196.875 c -3.963,0 -7.893,-0.775 -11.529,-2.282 l -9.804,-4.039 v -0.011 h 42.993 c -0.928,1.965 -1.605,4.094 -1.954,6.332 z"
       style="fill:#ff3b02;fill-opacity:1;fill-rule:nonzero;stroke:none"
       id="path1357"
       clip-path="url(#clipPath89927)"
       transform="matrix(0.1872093,0,0,-0.1872093,341.67321,87.963217)" /><path
       d="m 248.8437,112.1123 -9.607,3.811 c 0.993,-2.566 2.172,-5.055 3.526,-7.435 l 5.939,-2.348 21.954,8.701 v 4.564 1.376 l -14.53,-5.765 z"
       style="fill:#003680;fill-opacity:1;fill-rule:nonzero;stroke:none"
       id="path1361"
       clip-path="url(#clipPath89942)"
       transform="matrix(0.1872093,0,0,-0.1872093,341.67321,87.963217)" /><path
       d="m 242.7734,162.6484 c -1.976,-3.461 -3.581,-7.14 -4.771,-10.993 l 16.977,-7.282 15.677,6.725 v 10.415 l -12.708,-5.71 z"
       style="fill:#001244;fill-opacity:1;fill-rule:nonzero;stroke:none"
       id="path1365"
       clip-path="url(#clipPath90137)"
       transform="matrix(0.1872093,0,0,-0.1872093,341.67321,87.963217)" /><path
       d="m 245.0991,166.3496 c -0.83,-1.201 -1.605,-2.445 -2.326,-3.701 l 15.175,-6.845 12.708,5.71 v 4.694 l -12.609,-5.688 z"
       style="fill:#003680;fill-opacity:1;fill-rule:nonzero;stroke:none"
       id="path1369"
       clip-path="url(#clipPath90077)"
       transform="matrix(0.1872093,0,0,-0.1872093,341.67321,87.963217)" /><path
       d="m 265.0996,185.4443 c -1.037,-1.233 -2.216,-2.369 -3.505,-3.341 -0.917,-0.71 -1.889,-1.353 -2.903,-1.91 -0.033,-0.022 -0.055,-0.055 -0.077,-0.065 -5.284,-3.756 -9.869,-8.418 -13.515,-13.779 l 12.947,-5.83 12.61,5.689 v 16.757 3.625 13.887 c 0,-5.72 -2.085,-10.994 -5.557,-15.033"
       style="fill:#001244;fill-opacity:1;fill-rule:nonzero;stroke:none"
       id="path1373"
       clip-path="url(#clipPath89957)"
       transform="matrix(0.1872093,0,0,-0.1872093,341.67321,87.963217)" /><path
       d="m 259.7832,90.2012 c 2.576,-1.747 5.316,-3.275 8.198,-4.563 0.874,-0.382 1.769,-0.764 2.675,-1.103 v 12.26 c -0.841,0.295 -1.735,0.437 -2.675,0.437 -4.159,0 -7.597,-3.035 -8.198,-7.031"
       style="fill:#003680;fill-opacity:1;fill-rule:nonzero;stroke:none"
       id="path1377"
       clip-path="url(#clipPath89912)"
       transform="matrix(0.1872093,0,0,-0.1872093,341.67321,87.963217)" /><path
       d="m 253.0908,95.4961 c 0.131,-16.791 11.136,-24.27 11.136,-24.27 l 2.467,9.499 1.288,4.913 c -2.882,1.288 -5.622,2.816 -8.199,4.563 -2.369,1.572 -4.607,3.352 -6.692,5.295"
       style="fill:#ffa435;fill-opacity:1;fill-rule:nonzero;stroke:none"
       id="path1381"
       clip-path="url(#clipPath90017)"
       transform="matrix(0.1872093,0,0,-0.1872093,341.67321,87.963217)" /><path
       d="m 235.9722,129.1875 c -0.218,1.889 -0.349,3.799 -0.36,5.764 -0.011,0.208 -0.011,0.404 -0.011,0.611 0,3.909 0.414,7.729 1.201,11.409 0.327,1.594 0.731,3.144 1.201,4.684 1.19,3.853 2.795,7.532 4.77,10.993 0.721,1.256 1.496,2.5 2.326,3.701 3.646,5.36 8.232,10.023 13.515,13.778 0.023,0.011 0.044,0.043 0.077,0.066 0.939,0.666 1.91,1.299 2.904,1.91 1.289,0.972 2.467,2.107 3.504,3.341 -3.755,1.309 -7.794,2.041 -12.008,2.041 -7.14,0 -13.8,-2.063 -19.411,-5.622 -10.154,-6.442 -16.89,-17.774 -16.89,-30.678 0,-12.62 6.441,-23.734 16.212,-30.241 1.736,-1.157 3.571,-2.161 5.503,-3.002 -1.223,3.581 -2.085,7.358 -2.533,11.245"
       style="fill:#ff7320;fill-opacity:1;fill-rule:nonzero;stroke:none"
       id="path1385"
       clip-path="url(#clipPath89972)"
       transform="matrix(0.1872093,0,0,-0.1872093,341.67321,87.963217)" /><path
       d="m 236.8672,213.0537 c -5.12,0 -9.531,-3.067 -11.485,-7.467 h 22.97 c -1.965,4.4 -6.376,7.467 -11.485,7.467"
       style="fill:#fbfbfb;fill-opacity:1;fill-rule:nonzero;stroke:none"
       id="path1389"
       clip-path="url(#clipPath90002)"
       transform="matrix(0.1872093,0,0,-0.1872093,341.67321,87.963217)" /><path
       d="m 242.7627,108.4883 c 0.316,-0.546 0.644,-1.092 0.982,-1.638 2.599,-4.192 5.743,-8.013 9.346,-11.343 v -0.011 c 2.085,-1.944 4.323,-3.723 6.693,-5.295 0.6,3.996 4.039,7.031 8.198,7.031 0.939,0 1.834,-0.142 2.675,-0.437 v 18.047 l -21.955,-8.702 z"
       style="fill:#001244;fill-opacity:1;fill-rule:nonzero;stroke:none"
       id="path1393"
       clip-path="url(#clipPath90092)"
       transform="matrix(0.1872093,0,0,-0.1872093,341.67321,87.963217)" /><path
       d="m 239.2363,115.9229 c -0.262,0.677 -0.502,1.343 -0.731,2.02 -1.933,0.84 -3.767,1.844 -5.503,3.001 v -2.532 -4.127 c 0,-0.699 0.099,-1.386 0.295,-2.042 0.874,-3.1 3.745,-5.392 7.14,-5.392 h 3.308 c -0.339,0.546 -0.666,1.092 -0.983,1.637 -1.353,2.38 -2.532,4.87 -3.526,7.435"
       style="fill:#ff3b02;fill-opacity:1;fill-rule:nonzero;stroke:none"
       id="path1397"
       clip-path="url(#clipPath90107)"
       transform="matrix(0.1872093,0,0,-0.1872093,341.67321,87.963217)" /><path
       d="m 238.0029,151.6553 c -0.47,-1.54 -0.874,-3.09 -1.201,-4.684 l 18.068,-7.718 15.786,6.757 v 5.088 l -15.676,-6.725 z"
       style="fill:#003680;fill-opacity:1;fill-rule:nonzero;stroke:none"
       id="path1401"
       clip-path="url(#clipPath90122)"
       transform="matrix(0.1872093,0,0,-0.1872093,341.67321,87.963217)" /><path
       d="m 229.1816,190.543 c 2.118,-1.648 4.782,-2.632 7.686,-2.632 1.354,0 2.664,0.23 3.886,0.623 3.581,1.157 6.463,3.886 7.817,7.391 0.131,0.305 0.24,0.622 0.328,0.95 h -24.062 c 0.764,-2.544 2.292,-4.749 4.345,-6.332"
       style="fill:#fbfbfb;fill-opacity:1;fill-rule:nonzero;stroke:none"
       id="path1405"
       clip-path="url(#clipPath89987)"
       transform="matrix(0.1872093,0,0,-0.1872093,341.67321,87.963217)" /><path
       d="m 236.8018,146.9717 c -0.786,-3.68 -1.201,-7.5 -1.201,-11.409 0,-0.207 0,-0.404 0.011,-0.612 l 16.299,-6.692 18.745,7.697 v 10.055 l -15.786,-6.758 z"
       style="fill:#001244;fill-opacity:1;fill-rule:nonzero;stroke:none"
       id="path1409"
       clip-path="url(#clipPath90032)"
       transform="matrix(0.1872093,0,0,-0.1872093,341.67321,87.963217)" /><path
       d="m 235.9722,129.1875 c 0.448,-3.887 1.31,-7.664 2.533,-11.245 0.229,-0.677 0.469,-1.343 0.731,-2.02 l 9.608,-3.81 7.282,2.904 14.53,5.765 v 9.661 l -18.865,-7.762 z"
       style="fill:#001244;fill-opacity:1;fill-rule:nonzero;stroke:none"
       id="path1413"
       clip-path="url(#clipPath90047)"
       transform="matrix(0.1872093,0,0,-0.1872093,341.67321,87.963217)" /><path
       d="m 235.6118,134.9512 c 0.011,-1.965 0.142,-3.875 0.36,-5.764 l 15.819,-6.507 18.865,7.762 v 5.514 l -18.745,-7.697 z"
       style="fill:#003680;fill-opacity:1;fill-rule:nonzero;stroke:none"
       id="path1417"
       clip-path="url(#clipPath90062)"
       transform="matrix(0.1872093,0,0,-0.1872093,341.67321,87.963217)" /><path
       d="m 265.0996,185.4443 c 3.472,4.039 5.557,9.313 5.557,15.033 0,12.806 -10.371,23.189 -23.178,23.189 -11.048,0 -20.284,-7.73 -22.609,-18.079 h 0.513 c 1.954,4.399 6.364,7.466 11.485,7.466 5.109,0 9.52,-3.067 11.485,-7.466 0.699,-1.551 1.08,-3.276 1.08,-5.11 0,-1.245 -0.185,-2.468 -0.534,-3.602 -0.088,-0.328 -0.197,-0.645 -0.328,-0.951 -1.354,-3.504 -4.236,-6.233 -7.817,-7.39 -1.222,-0.394 -2.532,-0.623 -3.886,-0.623 -2.904,0 -5.568,0.983 -7.686,2.632 -2.053,1.583 -3.581,3.788 -4.345,6.332 h -0.262 c 0.349,-2.239 1.026,-4.368 1.954,-6.332 0.109,-0.219 0.218,-0.438 0.327,-0.656 1.638,-3.176 3.974,-5.917 6.824,-8.024 5.611,3.56 12.271,5.622 19.411,5.622 4.214,0 8.253,-0.731 12.009,-2.041"
       style="fill:#ffa435;fill-opacity:1;fill-rule:nonzero;stroke:none"
       id="path1421"
       clip-path="url(#clipPath90182)"
       transform="matrix(0.1872093,0,0,-0.1872093,341.67321,87.963217)" /><path
       d="m 228.6685,199.2979 c 0.994,0 1.801,0.809 1.801,1.791 0,1.016 -0.807,1.823 -1.801,1.823 -1.004,0 -1.812,-0.807 -1.812,-1.823 0,-0.982 0.808,-1.791 1.812,-1.791"
       style="fill:#ff3b02;fill-opacity:1;fill-rule:nonzero;stroke:none"
       id="path1425"
       clip-path="url(#clipPath90152)"
       transform="matrix(0.1872093,0,0,-0.1872093,341.67321,87.963217)" /><path
       d="m 228.6685,202.9121 c 0.994,0 1.801,-0.808 1.801,-1.823 0,-0.983 -0.807,-1.791 -1.801,-1.791 -1.004,0 -1.812,0.808 -1.812,1.791 0,1.015 0.808,1.823 1.812,1.823 m -4.367,-2.435 c 0,-0.251 0.011,-0.502 0.022,-0.764 0.022,-0.96 0.109,-1.91 0.251,-2.838 h 0.262 24.062 c 0.349,1.135 0.535,2.357 0.535,3.602 0,1.834 -0.382,3.559 -1.081,5.11 h -22.97 -0.513 c -0.317,-1.387 -0.502,-2.839 -0.546,-4.334 -0.011,-0.252 -0.022,-0.514 -0.022,-0.776"
       style="fill:#001244;fill-opacity:1;fill-rule:nonzero;stroke:none"
       id="path1429"
       clip-path="url(#clipPath90167)"
       transform="matrix(0.1872093,0,0,-0.1872093,341.67321,87.963217)" /><path
       d="m 204.8687,196.875 h 19.706 c -0.142,0.928 -0.229,1.878 -0.251,2.838 -0.011,0.263 -0.022,0.514 -0.022,0.765 0,0.261 0.011,0.523 0.022,0.775 0.044,1.495 0.229,2.947 0.545,4.334 h -16.823 c -7.686,0 -15.066,-2.904 -20.492,-8.079 l -9.836,-9.357 5.818,2.403 9.804,4.039 c 3.636,1.507 7.566,2.282 11.529,2.282"
       style="fill:#ff7320;fill-opacity:1;fill-rule:nonzero;stroke:none"
       id="path1433"
       clip-path="url(#clipPath90197)"
       transform="matrix(0.1872093,0,0,-0.1872093,341.67321,87.963217)" /></g><path
     style="fill:#003680;fill-opacity:1;stroke:#00ff00;stroke-width:0.1;stroke-dasharray:none;stroke-opacity:1"
     d="m -46.193587,154.7493 -0.446747,0.69043 2.826689,1.28338 2.436801,-1.08844 -0.03249,-0.84476 -2.331206,1.0397 z"
     id="path97856" /><g
     id="g98630"
     transform="translate(-44.724504,113.2819)"><ellipse
       style="fill:#ffa435;fill-opacity:1;stroke:none;stroke-width:0.2;stroke-dasharray:none;stroke-opacity:1"
       id="path95201"
       cx="13.8995"
       cy="45.374401"
       rx="4.2502604"
       ry="4.5259528" /><path
       style="fill:#ff7320;fill-opacity:1;stroke:none;stroke-width:0.1;stroke-dasharray:none;stroke-opacity:1"
       d="m 0.8270777,47.740762 c 1.3863209,-1.174069 2.4054651,-2.674516 4.5029785,-3.216414 l 4.4455425,-0.04595 c -0.132449,1.094067 -0.3131912,2.182039 0.1952822,2.848824 H 1.8379504 Z"
       id="path95259"
       sodipodi:nodetypes="cccccc" /><ellipse
       style="fill:#fbfbfb;fill-opacity:1;stroke:none;stroke-width:0.117683;stroke-dasharray:none;stroke-opacity:1"
       id="path95963"
       cx="11.907835"
       cy="45.45446"
       rx="2.3304875"
       ry="2.3142419" /><ellipse
       style="fill:#ff7320;fill-opacity:1;stroke:none;stroke-width:0.302496;stroke-dasharray:none;stroke-opacity:1"
       id="ellipse95203"
       cx="-5.4112692"
       cy="54.523121"
       rx="6.7261939"
       ry="6.5423985"
       clip-path="url(#clipPath97613)"
       transform="translate(20)" /><path
       style="fill:#ff3b02;fill-opacity:1;stroke:none;stroke-width:0.1;stroke-dasharray:none;stroke-opacity:1"
       d="m 9.6111744,46.009403 c 0.5477156,1.234894 0.2584973,0.823639 0.4975526,1.432692 L 2.0328945,47.327223 c 1.8580654,-1.761339 6.9965815,-0.897797 7.5782799,-1.31782 z"
       id="path95357"
       sodipodi:nodetypes="cccc" /><path
       style="fill:#001244;fill-opacity:1;stroke:none;stroke-width:0.0395397;stroke-dasharray:none;stroke-opacity:1"
       d="m 9.6075181,46.083878 c -0.053736,-0.524192 -0.029713,-1.029843 0.1127497,-1.640135 l 4.2925082,0.0013 c 0.330655,0.908235 0.163193,1.335457 0.114475,1.61768 z"
       id="path98474"
       sodipodi:nodetypes="ccccc" /><ellipse
       style="fill:#ff3b02;fill-opacity:1;stroke:none;stroke-width:0.125402;stroke-dasharray:none;stroke-opacity:1"
       id="ellipse95965"
       cx="10.316772"
       cy="45.282761"
       rx="0.30028117"
       ry="0.29818797" /><ellipse
       style="fill:#001244;fill-opacity:1;stroke:none;stroke-width:0.110486;stroke-dasharray:none;stroke-opacity:1"
       id="ellipse97798"
       cx="0.2688891"
       cy="57.651768"
       rx="8.4778776"
       ry="9.7090597"
       clip-path="url(#clipPath97725)"
       transform="translate(20)" /><path
       style="fill:#003680;fill-opacity:1;stroke:none;stroke-width:0.04;stroke-dasharray:none;stroke-opacity:1"
       d="m 13.30692,51.968842 -0.300539,0.722918 2.777953,1.088438 2.436801,-1.088438 -0.03249,-0.844758 -2.331206,1.039702 z"
       id="path97864"
       sodipodi:nodetypes="ccccccc" /><path
       style="fill:#003680;fill-opacity:1;stroke:none;stroke-width:0.04;stroke-dasharray:none;stroke-opacity:1"
       d="m 12.213666,54.552818 -0.292416,0.942229 3.330295,1.364609 2.923642,-1.237433 0.02495,-0.971117 -2.972956,1.258197 z"
       id="path97866"
       sodipodi:nodetypes="ccccccc" /><path
       style="fill:#003680;fill-opacity:1;stroke:none;stroke-width:0.04;stroke-dasharray:none;stroke-opacity:1"
       d="m 11.793637,57.650186 0.02437,1.112806 2.882154,1.177688 3.475027,-1.386766 -0.021,-1.063015 -3.512853,1.384557 z"
       id="path97868"
       sodipodi:nodetypes="ccccccc" /><path
       style="fill:#003680;fill-opacity:1;stroke:none;stroke-width:0.04;stroke-dasharray:none;stroke-opacity:1"
       d="m 12.384003,61.227132 0.611031,1.427718 1.07333,0.424291 4.095336,-1.685433 0.002,-1.097477 -4.052751,1.648762 z"
       id="path97870"
       sodipodi:nodetypes="ccccccc" /><path
       style="fill:#003680;fill-opacity:1;stroke:none;stroke-width:0.04;stroke-dasharray:none;stroke-opacity:1"
       d="m 16.157535,66.034112 c 0.119981,-0.413364 0.479117,-1.606659 2.033233,-1.206155 l -0.01149,2.280207 C 17.469883,66.83294 16.775987,66.521543 16.157535,66.034112 Z"
       id="path98028"
       sodipodi:nodetypes="cccc" /><path
       style="fill:#ff3b02;fill-opacity:1;stroke:none;stroke-width:0.04;stroke-dasharray:none;stroke-opacity:1"
       d="m 11.094896,60.130129 1.072446,0.48061 0.986293,2.333319 c -0.734751,-0.09804 -1.557762,0.258474 -2.016002,-1.263591 z"
       id="path98362"
       sodipodi:nodetypes="ccccc" /></g><path
     style="fill:none;fill-opacity:1;stroke:#00ff00;stroke-width:0.04;stroke-dasharray:none;stroke-opacity:1"
     d="m -4.6293397,64.810756 c 0.8121706,0.96605 1.8127949,1.329049 2.7621358,1.856155 l -0.7181553,2.706894 C -4.7139303,67.24977 -4.5431733,66.083789 -4.6293397,64.810756 Z"
     id="path98686"
     sodipodi:nodetypes="cccc" /><path
     style="fill:#ffa435;fill-opacity:1;stroke:none;stroke-width:0.04;stroke-dasharray:none;stroke-opacity:1"
     d="m -27.599481,135.38552 c 0.812171,0.96605 1.967475,1.37324 2.916816,1.90035 l -0.718155,2.70689 c -2.128571,-2.12403 -2.112494,-3.33421 -2.198661,-4.60724 z"
     id="path98742"
     sodipodi:nodetypes="cccc" /><path
     style="fill:none;fill-opacity:1;stroke:#00ff00;stroke-width:0.04;stroke-dasharray:none;stroke-opacity:1"
     d="m -5,42.09375 h 3.640625 L -1.375,37.453125 c -0.1840037,1.077287 -0.5451934,1.933092 -1.0625,2.59375 -0.3243556,0.297487 -0.4239713,0.503313 -1.28125,0.960938 z"
     id="path98944"
     sodipodi:nodetypes="cccccc" /><g
     id="g104737"
     transform="translate(82.731493,-56.263456)"><ellipse
       style="fill:#ffa435;fill-opacity:1;stroke:none;stroke-width:0.2;stroke-dasharray:none;stroke-opacity:1"
       id="ellipse99492"
       cx="13.8995"
       cy="5.3424411"
       rx="4.2502604"
       ry="4.5259528" /><path
       style="fill:#ff7320;fill-opacity:1;stroke:none;stroke-width:0.1;stroke-dasharray:none;stroke-opacity:1"
       d="M 0.8270777,7.708802 C 2.2133986,6.534733 3.2325428,5.034286 5.3300562,4.492388 L 9.7755987,4.446438 C 9.6431497,5.540505 9.4624075,6.628477 9.9708809,7.295262 H 1.8379504 Z"
       id="path99494"
       sodipodi:nodetypes="cccccc" /><ellipse
       style="fill:#fbfbfb;fill-opacity:1;stroke:none;stroke-width:0.117683;stroke-dasharray:none;stroke-opacity:1"
       id="ellipse99496"
       cx="11.907835"
       cy="5.4225001"
       rx="2.3304875"
       ry="2.3142419" /><ellipse
       style="fill:#ff7320;fill-opacity:1;stroke:none;stroke-width:0.302496;stroke-dasharray:none;stroke-opacity:1"
       id="ellipse99498"
       cx="-5.4112692"
       cy="54.523121"
       rx="6.7261939"
       ry="6.5423985"
       clip-path="url(#clipPath97613)"
       transform="translate(20,-40.03196)" /><path
       style="fill:#ff3b02;fill-opacity:1;stroke:none;stroke-width:0.1;stroke-dasharray:none;stroke-opacity:1"
       d="M 9.6111744,5.977443 C 10.15889,7.212337 9.8696717,6.801082 10.108727,7.410135 L 2.0328945,7.295263 C 3.8909599,5.533924 9.029476,6.397466 9.6111744,5.977443 Z"
       id="path99500"
       sodipodi:nodetypes="cccc" /><path
       style="fill:#001244;fill-opacity:1;stroke:none;stroke-width:0.0395397;stroke-dasharray:none;stroke-opacity:1"
       d="M 9.6075181,6.051918 C 9.5537821,5.527726 9.5778051,5.022075 9.7202678,4.411783 l 4.2925082,0.0013 c 0.330655,0.908235 0.163193,1.335457 0.114475,1.61768 z"
       id="path99502"
       sodipodi:nodetypes="ccccc" /><ellipse
       style="fill:#ff3b02;fill-opacity:1;stroke:none;stroke-width:0.125402;stroke-dasharray:none;stroke-opacity:1"
       id="ellipse99504"
       cx="10.316772"
       cy="5.2508006"
       rx="0.30028117"
       ry="0.29818797" /><ellipse
       style="fill:#ffffff;fill-opacity:1;stroke:none;stroke-width:0.110486;stroke-dasharray:none;stroke-opacity:1"
       id="ellipse99506"
       cx="0.2688891"
       cy="57.651768"
       rx="8.4778776"
       ry="9.7090597"
       clip-path="url(#clipPath97725)"
       transform="translate(20,-40.03196)" /><path
       style="fill:#fbfbfb;fill-opacity:1;stroke:none;stroke-width:0.04;stroke-dasharray:none;stroke-opacity:1"
       d="m 13.30692,11.936882 -0.300539,0.722918 2.777953,1.088438 2.436801,-1.088438 -0.03249,-0.844758 -2.331206,1.039702 z"
       id="path99508"
       sodipodi:nodetypes="ccccccc" /><path
       style="fill:#fbfbfb;fill-opacity:1;stroke:none;stroke-width:0.04;stroke-dasharray:none;stroke-opacity:1"
       d="m 12.213666,14.520858 -0.292416,0.942229 3.330295,1.364609 2.923642,-1.237433 0.02495,-0.971117 -2.972956,1.258197 z"
       id="path99510"
       sodipodi:nodetypes="ccccccc" /><path
       style="fill:#fbfbfb;fill-opacity:1;stroke:none;stroke-width:0.04;stroke-dasharray:none;stroke-opacity:1"
       d="m 11.793637,17.618226 0.02437,1.112806 2.882154,1.177688 3.475027,-1.386766 -0.021,-1.063015 -3.512853,1.384557 z"
       id="path99512"
       sodipodi:nodetypes="ccccccc" /><path
       style="fill:#fbfbfb;fill-opacity:1;stroke:none;stroke-width:0.04;stroke-dasharray:none;stroke-opacity:1"
       d="m 12.384003,21.195172 0.611031,1.427718 1.07333,0.424291 4.095336,-1.685433 0.002,-1.097477 -4.052751,1.648762 z"
       id="path99514"
       sodipodi:nodetypes="ccccccc" /><path
       style="fill:#fbfbfb;fill-opacity:1;stroke:none;stroke-width:0.04;stroke-dasharray:none;stroke-opacity:1"
       d="m 16.157535,26.002152 c 0.119981,-0.413364 0.479117,-1.606659 2.033233,-1.206155 l -0.01149,2.280207 C 17.469883,26.80098 16.775987,26.489583 16.157535,26.002152 Z"
       id="path99516"
       sodipodi:nodetypes="cccc" /><path
       style="fill:#ff3b02;fill-opacity:1;stroke:none;stroke-width:0.04;stroke-dasharray:none;stroke-opacity:1"
       d="m 11.094896,20.098169 1.072446,0.48061 0.986293,2.333319 c -0.734751,-0.09804 -1.557762,0.258474 -2.016002,-1.263591 z"
       id="path99518"
       sodipodi:nodetypes="ccccc" /><path
       style="fill:#ffa435;fill-opacity:1;stroke:none;stroke-width:0.04;stroke-dasharray:none;stroke-opacity:1"
       d="m 14.826925,25.028396 c 0.812171,0.96605 1.967475,1.373243 2.916816,1.900349 l -0.718155,2.706894 c -2.128571,-2.124035 -2.112494,-3.33421 -2.198661,-4.607243 z"
       id="path99522"
       sodipodi:nodetypes="cccc" /><path
       style="fill:#ffffff;fill-opacity:1;stroke:none;stroke-width:0.04;stroke-dasharray:none;stroke-opacity:1"
       d="m 14.45236,10.578776 3.777344,-0.05469 c 0.01652,-1.81905 0.04176,-3.642462 -0.08461,-5.39007 0.02795,0.59282 -0.01219,1.815783 -1.110716,3.23382 -0.324356,0.297487 -0.400534,0.558 -1.257813,1.015625 z"
       id="path99524"
       sodipodi:nodetypes="cccccc" /></g><text
     id="text104562"
     fill="#2e2e2e"
     font-size="24"
     font-family="Helvetica-Bold, Helvetica"
     font-weight="700"
     style="font-style:normal;font-variant:normal;font-weight:bold;font-stretch:normal;font-size:10.6667px;font-family:sans-serif;-inkscape-font-specification:'sans-serif, Bold';font-variant-ligatures:normal;font-variant-caps:normal;font-variant-numeric:normal;font-variant-east-asian:normal;fill:#ffffff;fill-opacity:0.956863"
     x="37.589119"
     y="101.28614"><tspan
       sodipodi:role="line"
       id="tspan104560"
       x="37.589119"
       y="101.28614">INNOVATION LABS</tspan></text><g
     id="g113455"
     style="fill:url(#linearGradient149523);fill-opacity:1"
     transform="matrix(2.8746962,0,0,2.8746962,-1212.9242,-102.36088)"><path
       style="fill:url(#linearGradient736);fill-opacity:1;stroke-width:0.0142624"
       d="m 383.13464,56.15423 3.08158,-11.260541 5.14371,9.105746 -5.86197,3.220607 0.0695,-1.39019 -1.04264,0.926792 z"
       id="path105255" /><path
       style="fill:url(#linearGradient738);fill-opacity:1;stroke-width:0.0142624"
       d="m 383.04671,64.953248 1.34344,9.240319 18.61171,-4.947828 -17.10442,-8.191773 -2.26093,1.408984 1.17962,3.24394 z"
       id="path105259" /><path
       style="fill:url(#linearGradient740);fill-opacity:1;stroke-width:0.0142624"
       d="m 382.03092,59.481146 -2.26093,3.604377 4.45633,2.097094 z"
       id="path105261" /><path
       style="fill:url(#linearGradient742);fill-opacity:1;stroke-width:0.0142624"
       d="m 377.4763,53.943505 -3.99759,6.75002 8.25731,-1.867724 z"
       id="path105265" /><path
       style="fill:url(#linearGradient744);fill-opacity:1;stroke-width:0.0142624"
       d="m 382.42413,58.825801 2.75244,-2.391998 -0.45874,2.949039 z"
       id="path105267" /></g><g
     id="g113462"
     style="fill:url(#linearGradient148789);fill-opacity:1"
     transform="matrix(2.8746962,0,0,2.8746962,-1212.9242,-102.36088)"><path
       style="fill:url(#linearGradient726);fill-opacity:1;stroke-width:0.0142624"
       d="m 385.3404,57.613421 13.79495,-8.060707 -6.61896,14.253687 -6.29128,-3.04734 1.67112,-1.015778 -2.71966,-0.425973 z"
       id="path105257" /><path
       style="fill:url(#linearGradient728);fill-opacity:1;stroke-width:0.0142624"
       d="m 376.26392,60.398624 0.95024,6.487885 4.58739,-7.601967 z"
       id="path105263" /><path
       style="fill:url(#linearGradient730);fill-opacity:1;stroke-width:0.0142624"
       d="m 383.53821,62.168045 3.60438,-2.097093 -4.58739,-0.884711 z"
       id="path105269" /><path
       style="fill:url(#linearGradient732);fill-opacity:1;stroke-width:0.0142624"
       d="m 382.0109,56.015211 2.0737,0.915207 -1.842,1.726152 z"
       id="path105271" /><path
       style="fill:url(#linearGradient734);fill-opacity:1;stroke-width:0.0142624"
       d="m 376.11418,51.636111 h 8.03993 l -1.29751,4.309588 -1.25117,-0.463394 0.34755,3.035245 z"
       id="path105273" /></g><g
     id="g547"
     transform="matrix(-1,0,0,1,438.20021,-67.393056)"
     style="fill:#ffffff;fill-opacity:0.95686275"><path
       d="m 431.0838,73.90724 c -2.47401,1.4524 -6.31426,3.70486 -8.55441,5.00956 -5.66191,3.3233 -13.95784,8.17285 -19.20127,11.23767 -5.03417,2.94173 -5.20649,3.0525 -6.19117,3.96333 -3.82795,3.54485 -4.30798,9.6868 -1.09546,13.90861 2.30169,3.02789 6.30195,4.60338 10.00681,3.95103 0.61543,-0.0985 1.19393,-0.22155 1.2924,-0.25848 0.20924,-0.0738 2.7571,2.83096 2.74479,3.12636 0,0.11078 -0.35694,0.75082 -0.80005,1.42779 -0.44311,0.67697 -1.20623,1.87089 -1.71088,2.67094 l -0.92314,1.42779 -0.5785,0.0739 c -0.32002,0.0492 -0.77544,0.16001 -1.02161,0.25848 -0.54157,0.23386 -1.36624,0.97237 -1.61241,1.4401 l -0.18463,0.34463 h -3.71716 c -3.3233,0 -3.76641,0.0246 -4.20951,0.23387 -0.7139,0.32002 -1.53857,1.32931 -1.53857,1.87089 0,0.0615 2.25246,0.11077 5.71115,0.11077 h 5.69884 l -0.0615,-0.61542 c -0.0492,-0.56619 -0.0246,-0.64004 0.38156,-1.04622 0.35695,-0.35695 0.51696,-0.4308 0.94776,-0.4308 0.41848,0 0.5908,0.0739 0.93544,0.41849 0.33233,0.33233 0.41849,0.51696 0.41849,0.89852 0,0.25848 -0.0615,0.54157 -0.1477,0.62773 -0.11078,0.11078 0.67697,0.1477 3.58177,0.1477 h 3.71717 l -0.0738,-0.28309 c -0.16001,-0.51696 -0.67697,-1.19393 -1.19392,-1.52626 -0.49234,-0.33233 -0.59081,-0.34463 -2.27708,-0.38156 -1.62472,-0.0369 -1.77242,-0.0615 -1.89551,-0.2954 -0.0985,-0.18463 -0.0985,-0.2831 0.0369,-0.40618 0.0862,-0.0862 1.2924,-0.92314 2.68326,-1.84628 4.71415,-3.17559 4.80031,-3.23714 5.24342,-4.18489 0.20924,-0.45541 0.2954,-0.82467 0.2954,-1.41548 0,-1.34163 -0.2954,-1.78473 -3.84025,-5.68653 l -0.97237,-1.05853 0.4308,-0.78774 c 0.64004,-1.157 1.05853,-2.36323 1.23085,-3.53254 l 0.1477,-1.04623 2.08014,-1.34162 c 1.8832,-1.19393 3.0402,-1.93244 6.44965,-4.08643 l 1.03392,-0.65235 0.33233,0.24617 c 0.76312,0.55389 1.99397,0.35695 2.4617,-0.41849 0.40618,-0.66465 0.33233,-1.32931 -0.25848,-2.3263 -0.2831,-0.46773 -0.55389,-0.84929 -0.61543,-0.84929 -0.0615,0 -1.00929,0.52927 -2.10475,1.19393 -4.13566,2.43708 -10.67147,6.28964 -12.00079,7.05277 -1.28009,0.73851 -1.39086,0.83698 -1.45241,1.23085 -0.28309,1.64934 -0.7262,2.6094 -1.68626,3.64332 -1.25547,1.32931 -2.54786,1.96936 -4.28336,2.09244 -2.91712,0.22155 -5.76038,-1.77242 -6.53582,-4.60338 -1.03391,-3.69255 1.42779,-7.50819 5.18188,-8.04976 1.56319,-0.23386 3.23714,0.13539 4.44337,0.96006 l 0.44311,0.30772 2.63402,-1.76012 c 1.4524,-0.97237 4.02488,-2.64633 5.71115,-3.71717 6.21579,-3.97565 10.33914,-6.62197 12.57929,-8.06207 l 1.37855,-0.88621 0.35695,0.25848 c 1.05853,0.77543 2.56016,0.1477 2.69556,-1.14469 0.0615,-0.49234 0,-0.67697 -0.46773,-1.48933 -0.2954,-0.51696 -0.5785,-0.93545 -0.65235,-0.93545 -0.13539,0 0.0123,-0.0862 -12.94854,7.5205 L 409.33467,92.4439 408.51,92.11157 c -0.4431,-0.18463 -0.81236,-0.35695 -0.80005,-0.39387 0,-0.0369 0.25848,-0.22156 0.5785,-0.4308 0.32002,-0.19694 2.15399,-1.40317 4.08642,-2.65864 6.01886,-3.95103 12.53006,-8.22208 13.78553,-9.03444 0.50464,-0.33233 2.31399,-1.51395 4.00026,-2.62171 1.69857,-1.12007 3.20021,-2.08014 3.36022,-2.15399 0.22155,-0.0985 0.33233,-0.0738 0.59081,0.17232 0.25848,0.24617 0.44311,0.2954 1.03391,0.2954 0.59081,0 0.77544,-0.0492 1.04623,-0.30771 0.38156,-0.34464 0.67696,-0.96006 0.67696,-1.37855 0,-0.2831 -1.07084,-2.314 -1.21854,-2.314 -0.0492,0 -2.10475,1.18162 -4.56645,2.62171 z m -15.9272,39.05488 c 0.4431,0.20925 0.91082,0.93545 0.91082,1.40317 0,0.46772 -0.46772,1.19393 -0.91082,1.40317 -0.5785,0.27079 -1.07084,0.24617 -1.56318,-0.0862 -0.51696,-0.34464 -0.72621,-0.73851 -0.72621,-1.37855 0,-0.5785 0.23387,-0.97237 0.78775,-1.3047 0.46772,-0.2831 0.94775,-0.29541 1.50164,-0.0369 z"
       id="path336"
       style="fill:#ffffff;stroke:none;stroke-width:0.0123085;fill-opacity:0.95686275"
       inkscape:export-filename="path336.png"
       inkscape:export-xdpi="96"
       inkscape:export-ydpi="96" /><path
       d="m 428.56056,86.44961 c -0.33233,0.20924 -1.85859,1.10776 -3.38484,2.00628 -1.52626,0.89852 -3.92641,2.30169 -5.3542,3.13867 -1.41548,0.83698 -3.82795,2.25246 -5.3542,3.13867 -1.52625,0.89852 -3.72948,2.19091 -4.89878,2.88019 l -2.12938,1.25547 -0.38156,-0.32002 c -2.25245,-1.89551 -5.76038,-0.91083 -6.62197,1.87089 -0.30772,1.0093 -0.30772,1.52625 0,2.53555 0.4431,1.44009 1.71088,2.51093 3.27406,2.80634 2.16629,0.40618 4.46798,-1.26778 4.68954,-3.39715 l 0.0738,-0.66466 1.3047,-0.91083 c 0.71389,-0.50465 2.80634,-1.87089 4.628,-3.0402 1.83396,-1.16931 3.68024,-2.36323 4.12334,-2.64633 1.66165,-1.05853 2.60941,-1.67395 3.48331,-2.24014 0.48003,-0.30772 1.16931,-0.75082 1.50164,-0.96007 0.34464,-0.22155 1.35393,-0.8739 2.26476,-1.4524 l 1.64934,-1.05853 0.33233,0.24617 c 0.45542,0.34464 1.19393,0.4308 1.76012,0.19693 1.05853,-0.45541 1.21854,-1.63703 0.39387,-3.01558 -0.24617,-0.41849 -0.51696,-0.76313 -0.60312,-0.75082 -0.0738,0 -0.40618,0.17232 -0.75082,0.38157 z m -23.32462,13.69936 c 0.49234,0.25848 0.8616,0.91083 0.8616,1.53856 0,1.0093 -0.7139,1.72319 -1.74781,1.72319 -1.71088,0 -2.38785,-2.21553 -0.97237,-3.16328 0.49234,-0.33233 1.31701,-0.38157 1.85858,-0.0985 z"
       id="path338"
       style="fill:#ffffff;stroke:none;stroke-width:0.0123085;fill-opacity:0.95686275" /><path
       d="m 385.11154,86.8681 c -0.13539,0.0246 -0.55388,0.11077 -0.92314,0.18462 -1.0216,0.20925 -1.82166,0.67697 -2.74479,1.60011 -1.0093,1.0093 -1.51395,2.01859 -1.68627,3.40945 -0.0738,0.51696 -0.0985,1.03392 -0.0615,1.157 0.0492,0.14771 -1.18162,1.60011 -4.4926,5.28035 -4.87417,5.41574 -4.94802,5.52652 -4.68954,6.44966 0.28309,1.04622 -0.0862,1.25546 3.95103,-2.21553 0.71389,-0.60312 2.14168,-1.82166 3.16328,-2.69557 l 1.87089,-1.58779 -0.23386,-0.30772 c -0.50465,-0.62773 -0.36925,-0.81236 1.79704,-2.68325 l 1.66165,-1.41548 -0.0985,-0.45541 c -0.41849,-2.00629 0.97237,-3.82795 2.91712,-3.84025 0.97237,0 1.48933,0.18462 2.12937,0.73851 0.75082,0.66465 1.07084,1.35393 1.07084,2.31399 0,0.93545 -0.19694,1.42779 -0.82467,2.11707 -0.84929,0.96006 -2.27708,1.29239 -3.40946,0.81236 l -0.48003,-0.19694 -0.68927,0.5785 c -3.11406,2.64633 -11.08997,9.48986 -11.33614,9.72372 l -0.30771,0.30771 0.50465,-0.0615 c 0.38156,-0.0369 1.16931,-0.50465 3.38484,-1.94474 1.58779,-1.04623 3.54485,-2.32631 4.35721,-2.85558 0.81236,-0.52926 2.01859,-1.31701 2.67094,-1.74781 l 1.19393,-0.78774 3.97564,3.15098 c 2.19092,1.7355 4.27106,3.39714 4.64031,3.69255 0.35695,0.2954 0.68928,0.51696 0.71389,0.48003 0.0246,-0.0246 -0.0492,-0.40618 -0.18462,-0.83698 -0.60312,-1.95705 -0.66466,-4.61569 -0.16001,-6.56043 0.54157,-2.05552 2.01859,-4.4926 3.53254,-5.83423 0.78774,-0.70159 1.44009,-1.14469 2.92942,-2.00629 0.71389,-0.40618 1.157,-0.7262 1.04622,-0.76312 -0.0985,-0.0369 -1.52625,-0.36926 -3.1879,-0.75082 -1.66165,-0.36926 -3.34791,-0.76313 -3.75409,-0.8616 -0.40618,-0.0985 -1.48933,-0.34464 -2.40016,-0.55388 -0.91083,-0.20925 -2.24015,-0.50465 -2.95404,-0.67697 -1.35394,-0.30771 -2.47401,-0.4431 -2.8925,-0.35694 z"
       id="path340"
       style="fill:#ffffff;stroke:none;stroke-width:0.0123085;fill-opacity:0.95686275" /><path
       d="m 385.12385,91.10222 c -0.48003,0.1477 -1.02161,0.68928 -1.19393,1.19393 -0.43079,1.31701 0.88622,2.63401 2.24015,2.24014 1.39086,-0.41849 1.69857,-2.314 0.50465,-3.16328 -0.41849,-0.30772 -1.07084,-0.41849 -1.55087,-0.27079 z"
       id="path342"
       style="fill:#ffffff;stroke:none;stroke-width:0.0123085;fill-opacity:0.95686275" /><path
       d="m 416.68285,102.73376 c -0.38156,0.28309 -0.44311,0.41848 -0.75082,1.63703 -0.25848,1.05853 -0.88621,2.63402 -1.42778,3.60639 -0.0246,0.0369 0.24617,0.13539 0.60311,0.20924 0.35695,0.0739 2.28938,0.50465 4.28336,0.93545 1.99398,0.44311 4.54184,0.99699 5.66191,1.24316 1.12008,0.24617 3.13867,0.68927 4.49261,0.98468 6.5235,1.42779 6.04347,1.34162 6.46196,1.16931 0.44311,-0.18463 0.8616,-0.77544 0.8616,-1.21855 0,-0.40618 -0.44311,-1.09545 -0.77544,-1.19392 -0.1477,-0.0492 -1.18162,-0.45542 -2.30169,-0.91083 -1.12007,-0.45541 -4.55415,-1.85858 -7.63127,-3.11405 -8.06207,-3.28637 -8.9729,-3.65563 -9.00983,-3.65563 -0.0246,0.0123 -0.23386,0.14771 -0.46772,0.30772 z"
       id="path344"
       style="fill:#ffffff;stroke:none;stroke-width:0.0123085;fill-opacity:0.95686275" /></g></svg>
