<?xml version="1.0" encoding="UTF-8" standalone="no"?>
<svg
   version="1.0"
   width="679pt"
   height="661pt"
   viewBox="0 0 679 661"
   preserveAspectRatio="xMidYMid"
   id="svg348"
   sodipodi:docname="logo-design.svg"
   inkscape:version="1.2.2 (1:1.2.2+202305151914+b0a8486541)"
   inkscape:export-filename="../favicon.png"
   inkscape:export-xdpi="96"
   inkscape:export-ydpi="96"
   xmlns:inkscape="http://www.inkscape.org/namespaces/inkscape"
   xmlns:sodipodi="http://sodipodi.sourceforge.net/DTD/sodipodi-0.dtd"
   xmlns="http://www.w3.org/2000/svg"
   xmlns:svg="http://www.w3.org/2000/svg">
  <defs
     id="defs352">
    <clipPath
       clipPathUnits="userSpaceOnUse"
       id="clipPath1865">
      <rect
         style="fill:#edaaff;fill-opacity:1;stroke:none;stroke-width:0.75"
         id="rect1867"
         width="371.43552"
         height="195.47148"
         x="107.7962"
         y="319.06131" />
    </clipPath>
    <clipPath
       clipPathUnits="userSpaceOnUse"
       id="clipPath1865-3">
      <rect
         style="fill:#edaaff;fill-opacity:1;stroke:none;stroke-width:0.75"
         id="rect1867-6"
         width="371.43552"
         height="195.47148"
         x="107.7962"
         y="319.06131" />
    </clipPath>
  </defs>
  <sodipodi:namedview
     id="namedview350"
     pagecolor="#ffffff"
     bordercolor="#000000"
     borderopacity="0.25"
     inkscape:showpageshadow="2"
     inkscape:pageopacity="0.0"
     inkscape:pagecheckerboard="0"
     inkscape:deskcolor="#d1d1d1"
     inkscape:document-units="pt"
     showgrid="false"
     inkscape:zoom="0.60946465"
     inkscape:cx="190.33097"
     inkscape:cy="407.73488"
     inkscape:window-width="1920"
     inkscape:window-height="1016"
     inkscape:window-x="0"
     inkscape:window-y="27"
     inkscape:window-maximized="1"
     inkscape:current-layer="svg348" />
  <rect
     style="fill:#ffaaaa;fill-opacity:1;stroke:none;stroke-width:0.597435"
     id="rect608"
     width="86.652283"
     height="396.64185"
     x="-302.0986"
     y="416.97629"
     transform="matrix(0.67728683,0.73571907,-0.70452455,0.70967962,0,0)" />
  <rect
     style="fill:#d6aaff;fill-opacity:1;stroke:none;stroke-width:0.712804"
     id="rect1386"
     width="103.558"
     height="472.44772"
     x="495.41791"
     y="-194.83354"
     transform="matrix(-0.82317151,0.56779281,-0.81721384,-0.57633457,0,0)" />
  <rect
     style="fill:#aab8ff;fill-opacity:1;stroke:none;stroke-width:0.680375"
     id="rect1388"
     width="93.663712"
     height="475.9071"
     x="22.149553"
     y="-647.09271"
     transform="matrix(-0.53423755,-0.84533439,0.83577042,-0.54907906,0,0)" />
  <rect
     style="fill:#d6aaff;fill-opacity:1;stroke:none;stroke-width:0.622129"
     id="rect1803"
     width="84.729088"
     height="439.87137"
     x="-26.240892"
     y="-669.50201"
     transform="matrix(-0.55417875,-0.83239769,0.84851611,-0.52916955,0,0)" />
  <circle
     style="fill:#ffaaaa;fill-opacity:1;stroke:none;stroke-width:0.75"
     id="path1456"
     cx="290.59555"
     cy="551.06274"
     r="122.58534"
     clip-path="url(#clipPath1865)"
     transform="translate(-724.8291)" />
  <rect
     style="fill:#aab8ff;fill-opacity:1;stroke:none;stroke-width:0.622129"
     id="rect1805"
     width="84.729088"
     height="439.87137"
     x="-91.975143"
     y="-705.49933"
     transform="matrix(-0.55417875,-0.83239769,0.84851611,-0.52916955,0,0)" />
  <g
     id="g3479"
     transform="translate(-724.8291)">
    <g
       id="g21"
       transform="matrix(1.0143578,0,0,1.0143578,-21.779099,-32.094528)"
       style="fill:#000000;stroke:#cccccc">
      <path
         d="m 518,97.3 c -20.1,11.8 -51.3,30.1 -69.5,40.7 -46,27 -113.4,66.4 -156,91.3 -40.9,23.9 -42.3,24.8 -50.3,32.2 -31.1,28.8 -35,78.7 -8.9,113 18.7,24.6 51.2,37.4 81.3,32.1 5,-0.8 9.7,-1.8 10.5,-2.1 1.7,-0.6 22.4,23 22.3,25.4 0,0.9 -2.9,6.1 -6.5,11.6 -3.6,5.5 -9.8,15.2 -13.9,21.7 l -7.5,11.6 -4.7,0.6 c -2.6,0.4 -6.3,1.3 -8.3,2.1 -4.4,1.9 -11.1,7.9 -13.1,11.7 l -1.5,2.8 h -30.2 c -27,0 -30.6,0.2 -34.2,1.9 -5.8,2.6 -12.5,10.8 -12.5,15.2 0,0.5 18.3,0.9 46.4,0.9 h 46.3 l -0.5,-5 c -0.4,-4.6 -0.2,-5.2 3.1,-8.5 2.9,-2.9 4.2,-3.5 7.7,-3.5 3.4,0 4.8,0.6 7.6,3.4 2.7,2.7 3.4,4.2 3.4,7.3 0,2.1 -0.5,4.4 -1.2,5.1 -0.9,0.9 5.5,1.2 29.1,1.2 h 30.2 l -0.6,-2.3 c -1.3,-4.2 -5.5,-9.7 -9.7,-12.4 -4,-2.7 -4.8,-2.8 -18.5,-3.1 -13.2,-0.3 -14.4,-0.5 -15.4,-2.4 -0.8,-1.5 -0.8,-2.3 0.3,-3.3 0.7,-0.7 10.5,-7.5 21.8,-15 38.3,-25.8 39,-26.3 42.6,-34 1.7,-3.7 2.4,-6.7 2.4,-11.5 0,-10.9 -2.4,-14.5 -31.2,-46.2 l -7.9,-8.6 3.5,-6.4 c 5.2,-9.4 8.6,-19.2 10,-28.7 l 1.2,-8.5 16.9,-10.9 c 15.3,-9.7 24.7,-15.7 52.4,-33.2 l 8.4,-5.3 2.7,2 c 6.2,4.5 16.2,2.9 20,-3.4 3.3,-5.4 2.7,-10.8 -2.1,-18.9 -2.3,-3.8 -4.5,-6.9 -5,-6.9 -0.5,0 -8.2,4.3 -17.1,9.7 -33.6,19.8 -86.7,51.1 -97.5,57.3 -10.4,6 -11.3,6.8 -11.8,10 -2.3,13.4 -5.9,21.2 -13.7,29.6 -10.2,10.8 -20.7,16 -34.8,17 -23.7,1.8 -46.8,-14.4 -53.1,-37.4 -8.4,-30 11.6,-61 42.1,-65.4 12.7,-1.9 26.3,1.1 36.1,7.8 l 3.6,2.5 21.4,-14.3 c 11.8,-7.9 32.7,-21.5 46.4,-30.2 50.5,-32.3 84,-53.8 102.2,-65.5 l 11.2,-7.2 2.9,2.1 c 8.6,6.3 20.8,1.2 21.9,-9.3 0.5,-4 0,-5.5 -3.8,-12.1 -2.4,-4.2 -4.7,-7.6 -5.3,-7.6 -1.1,0 0.1,-0.7 -105.2,61.1 l -83.1,48.8 -6.7,-2.7 c -3.6,-1.5 -6.6,-2.9 -6.5,-3.2 0,-0.3 2.1,-1.8 4.7,-3.5 2.6,-1.6 17.5,-11.4 33.2,-21.6 48.9,-32.1 101.8,-66.8 112,-73.4 4.1,-2.7 18.8,-12.3 32.5,-21.3 13.8,-9.1 26,-16.9 27.3,-17.5 1.8,-0.8 2.7,-0.6 4.8,1.4 2.1,2 3.6,2.4 8.4,2.4 4.8,0 6.3,-0.4 8.5,-2.5 3.1,-2.8 5.5,-7.8 5.5,-11.2 C 565,92.5 556.3,76 555.1,76 554.7,76 538,85.6 518,97.3 Z M 388.6,414.6 c 3.6,1.7 7.4,7.6 7.4,11.4 0,3.8 -3.8,9.7 -7.4,11.4 -4.7,2.2 -8.7,2 -12.7,-0.7 -4.2,-2.8 -5.9,-6 -5.9,-11.2 0,-4.7 1.9,-7.9 6.4,-10.6 3.8,-2.3 7.7,-2.4 12.2,-0.3 z"
         id="path11"
         style="fill:#000000;stroke:#cccccc;stroke-width:0.1"
         inkscape:export-filename="path336.png"
         inkscape:export-xdpi="96"
         inkscape:export-ydpi="96" />
      <path
         d="m 497.5,199.2 c -2.7,1.7 -15.1,9 -27.5,16.3 -12.4,7.3 -31.9,18.7 -43.5,25.5 -11.5,6.8 -31.1,18.3 -43.5,25.5 -12.4,7.3 -30.3,17.8 -39.8,23.4 l -17.3,10.2 -3.1,-2.6 c -18.3,-15.4 -46.8,-7.4 -53.8,15.2 -2.5,8.2 -2.5,12.4 0,20.6 3.6,11.7 13.9,20.4 26.6,22.8 17.6,3.3 36.3,-10.3 38.1,-27.6 l 0.6,-5.4 10.6,-7.4 c 5.8,-4.1 22.8,-15.2 37.6,-24.7 14.9,-9.5 29.9,-19.2 33.5,-21.5 13.5,-8.6 21.2,-13.6 28.3,-18.2 3.9,-2.5 9.5,-6.1 12.2,-7.8 2.8,-1.8 11,-7.1 18.4,-11.8 l 13.4,-8.6 2.7,2 c 3.7,2.8 9.7,3.5 14.3,1.6 8.6,-3.7 9.9,-13.3 3.2,-24.5 -2,-3.4 -4.2,-6.2 -4.9,-6.1 -0.6,0 -3.3,1.4 -6.1,3.1 z M 308,310.5 c 4,2.1 7,7.4 7,12.5 0,8.2 -5.8,14 -14.2,14 -13.9,0 -19.4,-18 -7.9,-25.7 4,-2.7 10.7,-3.1 15.1,-0.8 z"
         id="path13"
         style="fill:#000000;stroke:#cccccc;stroke-width:0.1" />
      <path
         d="m 144.5,202.6 c -1.1,0.2 -4.5,0.9 -7.5,1.5 -8.3,1.7 -14.8,5.5 -22.3,13 -8.2,8.2 -12.3,16.4 -13.7,27.7 -0.6,4.2 -0.8,8.4 -0.5,9.4 0.4,1.2 -9.6,13 -36.5,42.9 -39.6,44 -40.2,44.9 -38.1,52.4 2.3,8.5 -0.7,10.2 32.1,-18 5.8,-4.9 17.4,-14.8 25.7,-21.9 L 98.9,296.7 97,294.2 c -4.1,-5.1 -3,-6.6 14.6,-21.8 l 13.5,-11.5 -0.8,-3.7 c -3.4,-16.3 7.9,-31.1 23.7,-31.2 7.9,0 12.1,1.5 17.3,6 6.1,5.4 8.7,11 8.7,18.8 0,7.6 -1.6,11.6 -6.7,17.2 -6.9,7.8 -18.5,10.5 -27.7,6.6 l -3.9,-1.6 -5.6,4.7 C 104.8,299.2 40,354.8 38,356.7 l -2.5,2.5 4.1,-0.5 c 3.1,-0.3 9.5,-4.1 27.5,-15.8 12.9,-8.5 28.8,-18.9 35.4,-23.2 6.6,-4.3 16.4,-10.7 21.7,-14.2 l 9.7,-6.4 32.3,25.6 c 17.8,14.1 34.7,27.6 37.7,30 2.9,2.4 5.6,4.2 5.8,3.9 0.2,-0.2 -0.4,-3.3 -1.5,-6.8 -4.9,-15.9 -5.4,-37.5 -1.3,-53.3 4.4,-16.7 16.4,-36.5 28.7,-47.4 6.4,-5.7 11.7,-9.3 23.8,-16.3 5.8,-3.3 9.4,-5.9 8.5,-6.2 -0.8,-0.3 -12.4,-3 -25.9,-6.1 -13.5,-3 -27.2,-6.2 -30.5,-7 -3.3,-0.8 -12.1,-2.8 -19.5,-4.5 -7.4,-1.7 -18.2,-4.1 -24,-5.5 -11,-2.5 -20.1,-3.6 -23.5,-2.9 z"
         id="path15"
         style="fill:#000000;stroke:#cccccc;stroke-width:0.1" />
      <path
         d="m 144.6,237 c -3.9,1.2 -8.3,5.6 -9.7,9.7 -3.5,10.7 7.2,21.4 18.2,18.2 11.3,-3.4 13.8,-18.8 4.1,-25.7 -3.4,-2.5 -8.7,-3.4 -12.6,-2.2 z"
         id="path17"
         style="fill:#000000;stroke:#cccccc;stroke-width:0.1" />
      <path
         d="m 401,331.5 c -3.1,2.3 -3.6,3.4 -6.1,13.3 -2.1,8.6 -7.2,21.4 -11.6,29.3 -0.2,0.3 2,1.1 4.9,1.7 2.9,0.6 18.6,4.1 34.8,7.6 16.2,3.6 36.9,8.1 46,10.1 9.1,2 25.5,5.6 36.5,8 53,11.6 49.1,10.9 52.5,9.5 3.6,-1.5 7,-6.3 7,-9.9 0,-3.3 -3.6,-8.9 -6.3,-9.7 -1.2,-0.4 -9.6,-3.7 -18.7,-7.4 -9.1,-3.7 -37,-15.1 -62,-25.3 C 412.5,332 405.1,329 404.8,329 c -0.2,0.1 -1.9,1.2 -3.8,2.5 z"
         id="path19"
         style="fill:#000000;stroke:#cccccc;stroke-width:0.1" />
    </g>
  </g>
  <text
     id="BASIC"
     fill="#ffffff"
     font-size="24px"
     font-family="Helvetica-Bold, Helvetica"
     font-weight="700"
     x="-951.88538"
     y="-23.194674"
     style="font-style:normal;font-variant:normal;font-weight:bold;font-stretch:normal;font-size:634.97px;font-family:sans-serif;-inkscape-font-specification:'sans-serif, Bold';font-variant-ligatures:normal;font-variant-caps:normal;font-variant-numeric:normal;font-variant-east-asian:normal;fill:#000000;fill-opacity:0.956863;stroke-width:26.4571"><tspan
       sodipodi:role="line"
       id="tspan102658"
       x="-951.88538"
       y="-23.194674"
       style="fill:#000000;stroke-width:26.4571">A</tspan></text>
  <circle
     style="fill:#ffaaaa;fill-opacity:1;stroke:none;stroke-width:0.75"
     id="path1456-6"
     cx="290.59555"
     cy="551.06274"
     r="122.58534"
     clip-path="url(#clipPath1865-3)"
     transform="matrix(-1.0065917,0,0,1.0065917,1269.1339,24.209034)" />
  <path
     style="fill:#d6aaff;fill-opacity:1;stroke:none;stroke-width:0.887963"
     d="M 1129.2353,553.88304 935.39964,4.8568495 1062.8164,5.2498537 1270.465,552.26561 Z"
     id="path4636" />
  <rect
     style="fill:#ffaaaa;fill-opacity:1;stroke:none;stroke-width:0.799568"
     id="rect4692"
     width="633.93018"
     height="110.39646"
     x="693.34192"
     y="323.00394" />
  <path
     style="fill:#aab8ff;fill-opacity:1;stroke:none;stroke-width:0.888358"
     d="M 843.3623,555.09907 1033.0216,4.1268303 905.61146,5.4889917 702.12439,554.55409 Z"
     id="path4638" />
  <g
     id="g547"
     transform="matrix(-7.4293735,0,0,7.4293735,3971.5613,-402.52506)"
     style="fill:#000000;fill-opacity:0.956863">
    <path
       d="m 431.0838,73.90724 c -2.47401,1.4524 -6.31426,3.70486 -8.55441,5.00956 -5.66191,3.3233 -13.95784,8.17285 -19.20127,11.23767 -5.03417,2.94173 -5.20649,3.0525 -6.19117,3.96333 -3.82795,3.54485 -4.30798,9.6868 -1.09546,13.90861 2.30169,3.02789 6.30195,4.60338 10.00681,3.95103 0.61543,-0.0985 1.19393,-0.22155 1.2924,-0.25848 0.20924,-0.0738 2.7571,2.83096 2.74479,3.12636 0,0.11078 -0.35694,0.75082 -0.80005,1.42779 -0.44311,0.67697 -1.20623,1.87089 -1.71088,2.67094 l -0.92314,1.42779 -0.5785,0.0739 c -0.32002,0.0492 -0.77544,0.16001 -1.02161,0.25848 -0.54157,0.23386 -1.36624,0.97237 -1.61241,1.4401 l -0.18463,0.34463 h -3.71716 c -3.3233,0 -3.76641,0.0246 -4.20951,0.23387 -0.7139,0.32002 -1.53857,1.32931 -1.53857,1.87089 0,0.0615 2.25246,0.11077 5.71115,0.11077 h 5.69884 l -0.0615,-0.61542 c -0.0492,-0.56619 -0.0246,-0.64004 0.38156,-1.04622 0.35695,-0.35695 0.51696,-0.4308 0.94776,-0.4308 0.41848,0 0.5908,0.0739 0.93544,0.41849 0.33233,0.33233 0.41849,0.51696 0.41849,0.89852 0,0.25848 -0.0615,0.54157 -0.1477,0.62773 -0.11078,0.11078 0.67697,0.1477 3.58177,0.1477 h 3.71717 l -0.0738,-0.28309 c -0.16001,-0.51696 -0.67697,-1.19393 -1.19392,-1.52626 -0.49234,-0.33233 -0.59081,-0.34463 -2.27708,-0.38156 -1.62472,-0.0369 -1.77242,-0.0615 -1.89551,-0.2954 -0.0985,-0.18463 -0.0985,-0.2831 0.0369,-0.40618 0.0862,-0.0862 1.2924,-0.92314 2.68326,-1.84628 4.71415,-3.17559 4.80031,-3.23714 5.24342,-4.18489 0.20924,-0.45541 0.2954,-0.82467 0.2954,-1.41548 0,-1.34163 -0.2954,-1.78473 -3.84025,-5.68653 l -0.97237,-1.05853 0.4308,-0.78774 c 0.64004,-1.157 1.05853,-2.36323 1.23085,-3.53254 l 0.1477,-1.04623 2.08014,-1.34162 c 1.8832,-1.19393 3.0402,-1.93244 6.44965,-4.08643 l 1.03392,-0.65235 0.33233,0.24617 c 0.76312,0.55389 1.99397,0.35695 2.4617,-0.41849 0.40618,-0.66465 0.33233,-1.32931 -0.25848,-2.3263 -0.2831,-0.46773 -0.55389,-0.84929 -0.61543,-0.84929 -0.0615,0 -1.00929,0.52927 -2.10475,1.19393 -4.13566,2.43708 -10.67147,6.28964 -12.00079,7.05277 -1.28009,0.73851 -1.39086,0.83698 -1.45241,1.23085 -0.28309,1.64934 -0.7262,2.6094 -1.68626,3.64332 -1.25547,1.32931 -2.54786,1.96936 -4.28336,2.09244 -2.91712,0.22155 -5.76038,-1.77242 -6.53582,-4.60338 -1.03391,-3.69255 1.42779,-7.50819 5.18188,-8.04976 1.56319,-0.23386 3.23714,0.13539 4.44337,0.96006 l 0.44311,0.30772 2.63402,-1.76012 c 1.4524,-0.97237 4.02488,-2.64633 5.71115,-3.71717 6.21579,-3.97565 10.33914,-6.62197 12.57929,-8.06207 l 1.37855,-0.88621 0.35695,0.25848 c 1.05853,0.77543 2.56016,0.1477 2.69556,-1.14469 0.0615,-0.49234 0,-0.67697 -0.46773,-1.48933 -0.2954,-0.51696 -0.5785,-0.93545 -0.65235,-0.93545 -0.13539,0 0.0123,-0.0862 -12.94854,7.5205 L 409.33467,92.4439 408.51,92.11157 c -0.4431,-0.18463 -0.81236,-0.35695 -0.80005,-0.39387 0,-0.0369 0.25848,-0.22156 0.5785,-0.4308 0.32002,-0.19694 2.15399,-1.40317 4.08642,-2.65864 6.01886,-3.95103 12.53006,-8.22208 13.78553,-9.03444 0.50464,-0.33233 2.31399,-1.51395 4.00026,-2.62171 1.69857,-1.12007 3.20021,-2.08014 3.36022,-2.15399 0.22155,-0.0985 0.33233,-0.0738 0.59081,0.17232 0.25848,0.24617 0.44311,0.2954 1.03391,0.2954 0.59081,0 0.77544,-0.0492 1.04623,-0.30771 0.38156,-0.34464 0.67696,-0.96006 0.67696,-1.37855 0,-0.2831 -1.07084,-2.314 -1.21854,-2.314 -0.0492,0 -2.10475,1.18162 -4.56645,2.62171 z m -15.9272,39.05488 c 0.4431,0.20925 0.91082,0.93545 0.91082,1.40317 0,0.46772 -0.46772,1.19393 -0.91082,1.40317 -0.5785,0.27079 -1.07084,0.24617 -1.56318,-0.0862 -0.51696,-0.34464 -0.72621,-0.73851 -0.72621,-1.37855 0,-0.5785 0.23387,-0.97237 0.78775,-1.3047 0.46772,-0.2831 0.94775,-0.29541 1.50164,-0.0369 z"
       id="path336"
       style="fill:#000000;fill-opacity:0.956863;stroke:none;stroke-width:0.0123085"
       inkscape:export-filename="path336.png"
       inkscape:export-xdpi="96"
       inkscape:export-ydpi="96" />
    <path
       d="m 428.56056,86.44961 c -0.33233,0.20924 -1.85859,1.10776 -3.38484,2.00628 -1.52626,0.89852 -3.92641,2.30169 -5.3542,3.13867 -1.41548,0.83698 -3.82795,2.25246 -5.3542,3.13867 -1.52625,0.89852 -3.72948,2.19091 -4.89878,2.88019 l -2.12938,1.25547 -0.38156,-0.32002 c -2.25245,-1.89551 -5.76038,-0.91083 -6.62197,1.87089 -0.30772,1.0093 -0.30772,1.52625 0,2.53555 0.4431,1.44009 1.71088,2.51093 3.27406,2.80634 2.16629,0.40618 4.46798,-1.26778 4.68954,-3.39715 l 0.0738,-0.66466 1.3047,-0.91083 c 0.71389,-0.50465 2.80634,-1.87089 4.628,-3.0402 1.83396,-1.16931 3.68024,-2.36323 4.12334,-2.64633 1.66165,-1.05853 2.60941,-1.67395 3.48331,-2.24014 0.48003,-0.30772 1.16931,-0.75082 1.50164,-0.96007 0.34464,-0.22155 1.35393,-0.8739 2.26476,-1.4524 l 1.64934,-1.05853 0.33233,0.24617 c 0.45542,0.34464 1.19393,0.4308 1.76012,0.19693 1.05853,-0.45541 1.21854,-1.63703 0.39387,-3.01558 -0.24617,-0.41849 -0.51696,-0.76313 -0.60312,-0.75082 -0.0738,0 -0.40618,0.17232 -0.75082,0.38157 z m -23.32462,13.69936 c 0.49234,0.25848 0.8616,0.91083 0.8616,1.53856 0,1.0093 -0.7139,1.72319 -1.74781,1.72319 -1.71088,0 -2.38785,-2.21553 -0.97237,-3.16328 0.49234,-0.33233 1.31701,-0.38157 1.85858,-0.0985 z"
       id="path338"
       style="fill:#000000;fill-opacity:0.956863;stroke:none;stroke-width:0.0123085" />
    <path
       d="m 385.11154,86.8681 c -0.13539,0.0246 -0.55388,0.11077 -0.92314,0.18462 -1.0216,0.20925 -1.82166,0.67697 -2.74479,1.60011 -1.0093,1.0093 -1.51395,2.01859 -1.68627,3.40945 -0.0738,0.51696 -0.0985,1.03392 -0.0615,1.157 0.0492,0.14771 -1.18162,1.60011 -4.4926,5.28035 -4.87417,5.41574 -4.94802,5.52652 -4.68954,6.44966 0.28309,1.04622 -0.0862,1.25546 3.95103,-2.21553 0.71389,-0.60312 2.14168,-1.82166 3.16328,-2.69557 l 1.87089,-1.58779 -0.23386,-0.30772 c -0.50465,-0.62773 -0.36925,-0.81236 1.79704,-2.68325 l 1.66165,-1.41548 -0.0985,-0.45541 c -0.41849,-2.00629 0.97237,-3.82795 2.91712,-3.84025 0.97237,0 1.48933,0.18462 2.12937,0.73851 0.75082,0.66465 1.07084,1.35393 1.07084,2.31399 0,0.93545 -0.19694,1.42779 -0.82467,2.11707 -0.84929,0.96006 -2.27708,1.29239 -3.40946,0.81236 l -0.48003,-0.19694 -0.68927,0.5785 c -3.11406,2.64633 -11.08997,9.48986 -11.33614,9.72372 l -0.30771,0.30771 0.50465,-0.0615 c 0.38156,-0.0369 1.16931,-0.50465 3.38484,-1.94474 1.58779,-1.04623 3.54485,-2.32631 4.35721,-2.85558 0.81236,-0.52926 2.01859,-1.31701 2.67094,-1.74781 l 1.19393,-0.78774 3.97564,3.15098 c 2.19092,1.7355 4.27106,3.39714 4.64031,3.69255 0.35695,0.2954 0.68928,0.51696 0.71389,0.48003 0.0246,-0.0246 -0.0492,-0.40618 -0.18462,-0.83698 -0.60312,-1.95705 -0.66466,-4.61569 -0.16001,-6.56043 0.54157,-2.05552 2.01859,-4.4926 3.53254,-5.83423 0.78774,-0.70159 1.44009,-1.14469 2.92942,-2.00629 0.71389,-0.40618 1.157,-0.7262 1.04622,-0.76312 -0.0985,-0.0369 -1.52625,-0.36926 -3.1879,-0.75082 -1.66165,-0.36926 -3.34791,-0.76313 -3.75409,-0.8616 -0.40618,-0.0985 -1.48933,-0.34464 -2.40016,-0.55388 -0.91083,-0.20925 -2.24015,-0.50465 -2.95404,-0.67697 -1.35394,-0.30771 -2.47401,-0.4431 -2.8925,-0.35694 z"
       id="path340"
       style="fill:#000000;fill-opacity:0.956863;stroke:none;stroke-width:0.0123085" />
    <path
       d="m 385.12385,91.10222 c -0.48003,0.1477 -1.02161,0.68928 -1.19393,1.19393 -0.43079,1.31701 0.88622,2.63401 2.24015,2.24014 1.39086,-0.41849 1.69857,-2.314 0.50465,-3.16328 -0.41849,-0.30772 -1.07084,-0.41849 -1.55087,-0.27079 z"
       id="path342"
       style="fill:#000000;fill-opacity:0.956863;stroke:none;stroke-width:0.0123085" />
    <path
       d="m 416.68285,102.73376 c -0.38156,0.28309 -0.44311,0.41848 -0.75082,1.63703 -0.25848,1.05853 -0.88621,2.63402 -1.42778,3.60639 -0.0246,0.0369 0.24617,0.13539 0.60311,0.20924 0.35695,0.0739 2.28938,0.50465 4.28336,0.93545 1.99398,0.44311 4.54184,0.99699 5.66191,1.24316 1.12008,0.24617 3.13867,0.68927 4.49261,0.98468 6.5235,1.42779 6.04347,1.34162 6.46196,1.16931 0.44311,-0.18463 0.8616,-0.77544 0.8616,-1.21855 0,-0.40618 -0.44311,-1.09545 -0.77544,-1.19392 -0.1477,-0.0492 -1.18162,-0.45542 -2.30169,-0.91083 -1.12007,-0.45541 -4.55415,-1.85858 -7.63127,-3.11405 -8.06207,-3.28637 -8.9729,-3.65563 -9.00983,-3.65563 -0.0246,0.0123 -0.23386,0.14771 -0.46772,0.30772 z"
       id="path344"
       style="fill:#000000;fill-opacity:0.956863;stroke:none;stroke-width:0.0123085" />
  </g>
  <circle
     style="fill:#ffaaaa;fill-opacity:1;stroke:none;stroke-width:0.75"
     id="circle6614"
     cx="290.59555"
     cy="551.06274"
     r="122.58534"
     clip-path="url(#clipPath1865-3)"
     transform="matrix(-1.0065917,0,0,1.0065917,631.42475,144.66743)" />
  <path
     style="fill:#d6aaff;fill-opacity:1;stroke:none;stroke-width:1.06474"
     d="M 511.57102,659.24782 279.14596,0.91991 431.92926,1.39116 680.91713,657.3083 Z"
     id="path6616" />
  <rect
     style="fill:#ffaaaa;fill-opacity:1;stroke:none;stroke-width:0.96417"
     id="rect6618"
     width="702.81934"
     height="144.79329"
     x="-11.297477"
     y="343.2139" />
  <path
     style="fill:#aab8ff;fill-opacity:1;stroke:none;stroke-width:1.06521"
     d="M 168.78557,660.7059 396.20277,0.04455 243.42747,1.67789 -0.57037,660.0524 Z"
     id="path6620" />
</svg>
