<?xml version="1.0" encoding="UTF-8" standalone="no"?>
<svg
   version="1.0"
   width="555pt"
   height="555pt"
   viewBox="0 0 555 555"
   preserveAspectRatio="xMidYMid"
   id="svg348"
   sodipodi:docname="logo-design.svg"
   inkscape:version="1.2.2 (1:1.2.2+202305151914+b0a8486541)"
   inkscape:export-filename="../../../../../Pictures/logo-design.png"
   inkscape:export-xdpi="96"
   inkscape:export-ydpi="96"
   xmlns:inkscape="http://www.inkscape.org/namespaces/inkscape"
   xmlns:sodipodi="http://sodipodi.sourceforge.net/DTD/sodipodi-0.dtd"
   xmlns="http://www.w3.org/2000/svg"
   xmlns:svg="http://www.w3.org/2000/svg">
  <defs
     id="defs352" />
  <sodipodi:namedview
     id="namedview350"
     pagecolor="#ffffff"
     bordercolor="#000000"
     borderopacity="0.25"
     inkscape:showpageshadow="2"
     inkscape:pageopacity="0.0"
     inkscape:pagecheckerboard="0"
     inkscape:deskcolor="#d1d1d1"
     inkscape:document-units="pt"
     showgrid="false"
     inkscape:zoom="0.86191317"
     inkscape:cx="117.18118"
     inkscape:cy="466.98439"
     inkscape:window-width="1920"
     inkscape:window-height="1016"
     inkscape:window-x="0"
     inkscape:window-y="27"
     inkscape:window-maximized="1"
     inkscape:current-layer="svg348" />
  <g
     id="g2057"
     transform="translate(-21.417425,-24.771334)">
    <path
       d="m 518,97.3 c -20.1,11.8 -51.3,30.1 -69.5,40.7 -46,27 -113.4,66.4 -156,91.3 -40.9,23.9 -42.3,24.8 -50.3,32.2 -31.1,28.8 -35,78.7 -8.9,113 18.7,24.6 51.2,37.4 81.3,32.1 5,-0.8 9.7,-1.8 10.5,-2.1 1.7,-0.6 22.4,23 22.3,25.4 0,0.9 -2.9,6.1 -6.5,11.6 -3.6,5.5 -9.8,15.2 -13.9,21.7 l -7.5,11.6 -4.7,0.6 c -2.6,0.4 -6.3,1.3 -8.3,2.1 -4.4,1.9 -11.1,7.9 -13.1,11.7 l -1.5,2.8 h -30.2 c -27,0 -30.6,0.2 -34.2,1.9 -5.8,2.6 -12.5,10.8 -12.5,15.2 0,0.5 18.3,0.9 46.4,0.9 h 46.3 l -0.5,-5 c -0.4,-4.6 -0.2,-5.2 3.1,-8.5 2.9,-2.9 4.2,-3.5 7.7,-3.5 3.4,0 4.8,0.6 7.6,3.4 2.7,2.7 3.4,4.2 3.4,7.3 0,2.1 -0.5,4.4 -1.2,5.1 -0.9,0.9 5.5,1.2 29.1,1.2 h 30.2 l -0.6,-2.3 c -1.3,-4.2 -5.5,-9.7 -9.7,-12.4 -4,-2.7 -4.8,-2.8 -18.5,-3.1 -13.2,-0.3 -14.4,-0.5 -15.4,-2.4 -0.8,-1.5 -0.8,-2.3 0.3,-3.3 0.7,-0.7 10.5,-7.5 21.8,-15 38.3,-25.8 39,-26.3 42.6,-34 1.7,-3.7 2.4,-6.7 2.4,-11.5 0,-10.9 -2.4,-14.5 -31.2,-46.2 l -7.9,-8.6 3.5,-6.4 c 5.2,-9.4 8.6,-19.2 10,-28.7 l 1.2,-8.5 16.9,-10.9 c 15.3,-9.7 24.7,-15.7 52.4,-33.2 l 8.4,-5.3 2.7,2 c 6.2,4.5 16.2,2.9 20,-3.4 3.3,-5.4 2.7,-10.8 -2.1,-18.9 -2.3,-3.8 -4.5,-6.9 -5,-6.9 -0.5,0 -8.2,4.3 -17.1,9.7 -33.6,19.8 -86.7,51.1 -97.5,57.3 -10.4,6 -11.3,6.8 -11.8,10 -2.3,13.4 -5.9,21.2 -13.7,29.6 -10.2,10.8 -20.7,16 -34.8,17 -23.7,1.8 -46.8,-14.4 -53.1,-37.4 -8.4,-30 11.6,-61 42.1,-65.4 12.7,-1.9 26.3,1.1 36.1,7.8 l 3.6,2.5 21.4,-14.3 c 11.8,-7.9 32.7,-21.5 46.4,-30.2 50.5,-32.3 84,-53.8 102.2,-65.5 l 11.2,-7.2 2.9,2.1 c 8.6,6.3 20.8,1.2 21.9,-9.3 0.5,-4 0,-5.5 -3.8,-12.1 -2.4,-4.2 -4.7,-7.6 -5.3,-7.6 -1.1,0 0.1,-0.7 -105.2,61.1 l -83.1,48.8 -6.7,-2.7 c -3.6,-1.5 -6.6,-2.9 -6.5,-3.2 0,-0.3 2.1,-1.8 4.7,-3.5 2.6,-1.6 17.5,-11.4 33.2,-21.6 48.9,-32.1 101.8,-66.8 112,-73.4 4.1,-2.7 18.8,-12.3 32.5,-21.3 13.8,-9.1 26,-16.9 27.3,-17.5 1.8,-0.8 2.7,-0.6 4.8,1.4 2.1,2 3.6,2.4 8.4,2.4 4.8,0 6.3,-0.4 8.5,-2.5 3.1,-2.8 5.5,-7.8 5.5,-11.2 C 565,92.5 556.3,76 555.1,76 554.7,76 538,85.6 518,97.3 Z M 388.6,414.6 c 3.6,1.7 7.4,7.6 7.4,11.4 0,3.8 -3.8,9.7 -7.4,11.4 -4.7,2.2 -8.7,2 -12.7,-0.7 -4.2,-2.8 -5.9,-6 -5.9,-11.2 0,-4.7 1.9,-7.9 6.4,-10.6 3.8,-2.3 7.7,-2.4 12.2,-0.3 z"
       id="path336"
       style="fill:#000000;stroke:none;stroke-width:0.1"
       inkscape:export-filename="path336.png"
       inkscape:export-xdpi="96"
       inkscape:export-ydpi="96" />
    <path
       d="m 497.5,199.2 c -2.7,1.7 -15.1,9 -27.5,16.3 -12.4,7.3 -31.9,18.7 -43.5,25.5 -11.5,6.8 -31.1,18.3 -43.5,25.5 -12.4,7.3 -30.3,17.8 -39.8,23.4 l -17.3,10.2 -3.1,-2.6 c -18.3,-15.4 -46.8,-7.4 -53.8,15.2 -2.5,8.2 -2.5,12.4 0,20.6 3.6,11.7 13.9,20.4 26.6,22.8 17.6,3.3 36.3,-10.3 38.1,-27.6 l 0.6,-5.4 10.6,-7.4 c 5.8,-4.1 22.8,-15.2 37.6,-24.7 14.9,-9.5 29.9,-19.2 33.5,-21.5 13.5,-8.6 21.2,-13.6 28.3,-18.2 3.9,-2.5 9.5,-6.1 12.2,-7.8 2.8,-1.8 11,-7.1 18.4,-11.8 l 13.4,-8.6 2.7,2 c 3.7,2.8 9.7,3.5 14.3,1.6 8.6,-3.7 9.9,-13.3 3.2,-24.5 -2,-3.4 -4.2,-6.2 -4.9,-6.1 -0.6,0 -3.3,1.4 -6.1,3.1 z M 308,310.5 c 4,2.1 7,7.4 7,12.5 0,8.2 -5.8,14 -14.2,14 -13.9,0 -19.4,-18 -7.9,-25.7 4,-2.7 10.7,-3.1 15.1,-0.8 z"
       id="path338"
       style="fill:#000000;stroke:none;stroke-width:0.1" />
    <path
       d="m 144.5,202.6 c -1.1,0.2 -4.5,0.9 -7.5,1.5 -8.3,1.7 -14.8,5.5 -22.3,13 -8.2,8.2 -12.3,16.4 -13.7,27.7 -0.6,4.2 -0.8,8.4 -0.5,9.4 0.4,1.2 -9.6,13 -36.5,42.9 -39.6,44 -40.2,44.9 -38.1,52.4 2.3,8.5 -0.7,10.2 32.1,-18 5.8,-4.9 17.4,-14.8 25.7,-21.9 L 98.9,296.7 97,294.2 c -4.1,-5.1 -3,-6.6 14.6,-21.8 l 13.5,-11.5 -0.8,-3.7 c -3.4,-16.3 7.9,-31.1 23.7,-31.2 7.9,0 12.1,1.5 17.3,6 6.1,5.4 8.7,11 8.7,18.8 0,7.6 -1.6,11.6 -6.7,17.2 -6.9,7.8 -18.5,10.5 -27.7,6.6 l -3.9,-1.6 -5.6,4.7 C 104.8,299.2 40,354.8 38,356.7 l -2.5,2.5 4.1,-0.5 c 3.1,-0.3 9.5,-4.1 27.5,-15.8 12.9,-8.5 28.8,-18.9 35.4,-23.2 6.6,-4.3 16.4,-10.7 21.7,-14.2 l 9.7,-6.4 32.3,25.6 c 17.8,14.1 34.7,27.6 37.7,30 2.9,2.4 5.6,4.2 5.8,3.9 0.2,-0.2 -0.4,-3.3 -1.5,-6.8 -4.9,-15.9 -5.4,-37.5 -1.3,-53.3 4.4,-16.7 16.4,-36.5 28.7,-47.4 6.4,-5.7 11.7,-9.3 23.8,-16.3 5.8,-3.3 9.4,-5.9 8.5,-6.2 -0.8,-0.3 -12.4,-3 -25.9,-6.1 -13.5,-3 -27.2,-6.2 -30.5,-7 -3.3,-0.8 -12.1,-2.8 -19.5,-4.5 -7.4,-1.7 -18.2,-4.1 -24,-5.5 -11,-2.5 -20.1,-3.6 -23.5,-2.9 z"
       id="path340"
       style="fill:#000000;stroke:none;stroke-width:0.1" />
    <path
       d="m 144.6,237 c -3.9,1.2 -8.3,5.6 -9.7,9.7 -3.5,10.7 7.2,21.4 18.2,18.2 11.3,-3.4 13.8,-18.8 4.1,-25.7 -3.4,-2.5 -8.7,-3.4 -12.6,-2.2 z"
       id="path342"
       style="fill:#000000;stroke:none;stroke-width:0.1" />
    <path
       d="m 401,331.5 c -3.1,2.3 -3.6,3.4 -6.1,13.3 -2.1,8.6 -7.2,21.4 -11.6,29.3 -0.2,0.3 2,1.1 4.9,1.7 2.9,0.6 18.6,4.1 34.8,7.6 16.2,3.6 36.9,8.1 46,10.1 9.1,2 25.5,5.6 36.5,8 53,11.6 49.1,10.9 52.5,9.5 3.6,-1.5 7,-6.3 7,-9.9 0,-3.3 -3.6,-8.9 -6.3,-9.7 -1.2,-0.4 -9.6,-3.7 -18.7,-7.4 -9.1,-3.7 -37,-15.1 -62,-25.3 C 412.5,332 405.1,329 404.8,329 c -0.2,0.1 -1.9,1.2 -3.8,2.5 z"
       id="path344"
       style="fill:#000000;stroke:none;stroke-width:0.1" />
  </g>
  <g
     id="g21"
     transform="matrix(1.0143578,0,0,1.0143578,-21.779099,-32.094528)"
     style="fill:#b3b3b3;stroke:#cccccc">
    <path
       d="m 518,97.3 c -20.1,11.8 -51.3,30.1 -69.5,40.7 -46,27 -113.4,66.4 -156,91.3 -40.9,23.9 -42.3,24.8 -50.3,32.2 -31.1,28.8 -35,78.7 -8.9,113 18.7,24.6 51.2,37.4 81.3,32.1 5,-0.8 9.7,-1.8 10.5,-2.1 1.7,-0.6 22.4,23 22.3,25.4 0,0.9 -2.9,6.1 -6.5,11.6 -3.6,5.5 -9.8,15.2 -13.9,21.7 l -7.5,11.6 -4.7,0.6 c -2.6,0.4 -6.3,1.3 -8.3,2.1 -4.4,1.9 -11.1,7.9 -13.1,11.7 l -1.5,2.8 h -30.2 c -27,0 -30.6,0.2 -34.2,1.9 -5.8,2.6 -12.5,10.8 -12.5,15.2 0,0.5 18.3,0.9 46.4,0.9 h 46.3 l -0.5,-5 c -0.4,-4.6 -0.2,-5.2 3.1,-8.5 2.9,-2.9 4.2,-3.5 7.7,-3.5 3.4,0 4.8,0.6 7.6,3.4 2.7,2.7 3.4,4.2 3.4,7.3 0,2.1 -0.5,4.4 -1.2,5.1 -0.9,0.9 5.5,1.2 29.1,1.2 h 30.2 l -0.6,-2.3 c -1.3,-4.2 -5.5,-9.7 -9.7,-12.4 -4,-2.7 -4.8,-2.8 -18.5,-3.1 -13.2,-0.3 -14.4,-0.5 -15.4,-2.4 -0.8,-1.5 -0.8,-2.3 0.3,-3.3 0.7,-0.7 10.5,-7.5 21.8,-15 38.3,-25.8 39,-26.3 42.6,-34 1.7,-3.7 2.4,-6.7 2.4,-11.5 0,-10.9 -2.4,-14.5 -31.2,-46.2 l -7.9,-8.6 3.5,-6.4 c 5.2,-9.4 8.6,-19.2 10,-28.7 l 1.2,-8.5 16.9,-10.9 c 15.3,-9.7 24.7,-15.7 52.4,-33.2 l 8.4,-5.3 2.7,2 c 6.2,4.5 16.2,2.9 20,-3.4 3.3,-5.4 2.7,-10.8 -2.1,-18.9 -2.3,-3.8 -4.5,-6.9 -5,-6.9 -0.5,0 -8.2,4.3 -17.1,9.7 -33.6,19.8 -86.7,51.1 -97.5,57.3 -10.4,6 -11.3,6.8 -11.8,10 -2.3,13.4 -5.9,21.2 -13.7,29.6 -10.2,10.8 -20.7,16 -34.8,17 -23.7,1.8 -46.8,-14.4 -53.1,-37.4 -8.4,-30 11.6,-61 42.1,-65.4 12.7,-1.9 26.3,1.1 36.1,7.8 l 3.6,2.5 21.4,-14.3 c 11.8,-7.9 32.7,-21.5 46.4,-30.2 50.5,-32.3 84,-53.8 102.2,-65.5 l 11.2,-7.2 2.9,2.1 c 8.6,6.3 20.8,1.2 21.9,-9.3 0.5,-4 0,-5.5 -3.8,-12.1 -2.4,-4.2 -4.7,-7.6 -5.3,-7.6 -1.1,0 0.1,-0.7 -105.2,61.1 l -83.1,48.8 -6.7,-2.7 c -3.6,-1.5 -6.6,-2.9 -6.5,-3.2 0,-0.3 2.1,-1.8 4.7,-3.5 2.6,-1.6 17.5,-11.4 33.2,-21.6 48.9,-32.1 101.8,-66.8 112,-73.4 4.1,-2.7 18.8,-12.3 32.5,-21.3 13.8,-9.1 26,-16.9 27.3,-17.5 1.8,-0.8 2.7,-0.6 4.8,1.4 2.1,2 3.6,2.4 8.4,2.4 4.8,0 6.3,-0.4 8.5,-2.5 3.1,-2.8 5.5,-7.8 5.5,-11.2 C 565,92.5 556.3,76 555.1,76 554.7,76 538,85.6 518,97.3 Z M 388.6,414.6 c 3.6,1.7 7.4,7.6 7.4,11.4 0,3.8 -3.8,9.7 -7.4,11.4 -4.7,2.2 -8.7,2 -12.7,-0.7 -4.2,-2.8 -5.9,-6 -5.9,-11.2 0,-4.7 1.9,-7.9 6.4,-10.6 3.8,-2.3 7.7,-2.4 12.2,-0.3 z"
       id="path11"
       style="fill:#b3b3b3;stroke:#cccccc;stroke-width:0.1"
       inkscape:export-filename="path336.png"
       inkscape:export-xdpi="96"
       inkscape:export-ydpi="96" />
    <path
       d="m 497.5,199.2 c -2.7,1.7 -15.1,9 -27.5,16.3 -12.4,7.3 -31.9,18.7 -43.5,25.5 -11.5,6.8 -31.1,18.3 -43.5,25.5 -12.4,7.3 -30.3,17.8 -39.8,23.4 l -17.3,10.2 -3.1,-2.6 c -18.3,-15.4 -46.8,-7.4 -53.8,15.2 -2.5,8.2 -2.5,12.4 0,20.6 3.6,11.7 13.9,20.4 26.6,22.8 17.6,3.3 36.3,-10.3 38.1,-27.6 l 0.6,-5.4 10.6,-7.4 c 5.8,-4.1 22.8,-15.2 37.6,-24.7 14.9,-9.5 29.9,-19.2 33.5,-21.5 13.5,-8.6 21.2,-13.6 28.3,-18.2 3.9,-2.5 9.5,-6.1 12.2,-7.8 2.8,-1.8 11,-7.1 18.4,-11.8 l 13.4,-8.6 2.7,2 c 3.7,2.8 9.7,3.5 14.3,1.6 8.6,-3.7 9.9,-13.3 3.2,-24.5 -2,-3.4 -4.2,-6.2 -4.9,-6.1 -0.6,0 -3.3,1.4 -6.1,3.1 z M 308,310.5 c 4,2.1 7,7.4 7,12.5 0,8.2 -5.8,14 -14.2,14 -13.9,0 -19.4,-18 -7.9,-25.7 4,-2.7 10.7,-3.1 15.1,-0.8 z"
       id="path13"
       style="fill:#b3b3b3;stroke:#cccccc;stroke-width:0.1" />
    <path
       d="m 144.5,202.6 c -1.1,0.2 -4.5,0.9 -7.5,1.5 -8.3,1.7 -14.8,5.5 -22.3,13 -8.2,8.2 -12.3,16.4 -13.7,27.7 -0.6,4.2 -0.8,8.4 -0.5,9.4 0.4,1.2 -9.6,13 -36.5,42.9 -39.6,44 -40.2,44.9 -38.1,52.4 2.3,8.5 -0.7,10.2 32.1,-18 5.8,-4.9 17.4,-14.8 25.7,-21.9 L 98.9,296.7 97,294.2 c -4.1,-5.1 -3,-6.6 14.6,-21.8 l 13.5,-11.5 -0.8,-3.7 c -3.4,-16.3 7.9,-31.1 23.7,-31.2 7.9,0 12.1,1.5 17.3,6 6.1,5.4 8.7,11 8.7,18.8 0,7.6 -1.6,11.6 -6.7,17.2 -6.9,7.8 -18.5,10.5 -27.7,6.6 l -3.9,-1.6 -5.6,4.7 C 104.8,299.2 40,354.8 38,356.7 l -2.5,2.5 4.1,-0.5 c 3.1,-0.3 9.5,-4.1 27.5,-15.8 12.9,-8.5 28.8,-18.9 35.4,-23.2 6.6,-4.3 16.4,-10.7 21.7,-14.2 l 9.7,-6.4 32.3,25.6 c 17.8,14.1 34.7,27.6 37.7,30 2.9,2.4 5.6,4.2 5.8,3.9 0.2,-0.2 -0.4,-3.3 -1.5,-6.8 -4.9,-15.9 -5.4,-37.5 -1.3,-53.3 4.4,-16.7 16.4,-36.5 28.7,-47.4 6.4,-5.7 11.7,-9.3 23.8,-16.3 5.8,-3.3 9.4,-5.9 8.5,-6.2 -0.8,-0.3 -12.4,-3 -25.9,-6.1 -13.5,-3 -27.2,-6.2 -30.5,-7 -3.3,-0.8 -12.1,-2.8 -19.5,-4.5 -7.4,-1.7 -18.2,-4.1 -24,-5.5 -11,-2.5 -20.1,-3.6 -23.5,-2.9 z"
       id="path15"
       style="fill:#b3b3b3;stroke:#cccccc;stroke-width:0.1" />
    <path
       d="m 144.6,237 c -3.9,1.2 -8.3,5.6 -9.7,9.7 -3.5,10.7 7.2,21.4 18.2,18.2 11.3,-3.4 13.8,-18.8 4.1,-25.7 -3.4,-2.5 -8.7,-3.4 -12.6,-2.2 z"
       id="path17"
       style="fill:#b3b3b3;stroke:#cccccc;stroke-width:0.1" />
    <path
       d="m 401,331.5 c -3.1,2.3 -3.6,3.4 -6.1,13.3 -2.1,8.6 -7.2,21.4 -11.6,29.3 -0.2,0.3 2,1.1 4.9,1.7 2.9,0.6 18.6,4.1 34.8,7.6 16.2,3.6 36.9,8.1 46,10.1 9.1,2 25.5,5.6 36.5,8 53,11.6 49.1,10.9 52.5,9.5 3.6,-1.5 7,-6.3 7,-9.9 0,-3.3 -3.6,-8.9 -6.3,-9.7 -1.2,-0.4 -9.6,-3.7 -18.7,-7.4 -9.1,-3.7 -37,-15.1 -62,-25.3 C 412.5,332 405.1,329 404.8,329 c -0.2,0.1 -1.9,1.2 -3.8,2.5 z"
       id="path19"
       style="fill:#b3b3b3;stroke:#cccccc;stroke-width:0.1" />
  </g>
</svg>
