<?xml version="1.0" standalone="no"?>
<!DOCTYPE svg PUBLIC "-//W3C//DTD SVG 20010904//EN"
 "http://www.w3.org/TR/2001/REC-SVG-20010904/DTD/svg10.dtd">
<svg version="1.0" xmlns="http://www.w3.org/2000/svg"
 width="400.000000pt" height="400.000000pt" viewBox="0 0 400.000000 400.000000"
 preserveAspectRatio="xMidYMid meet">

<g transform="translate(0.000000,400.000000) scale(0.100000,-0.100000)"
fill="#000000" stroke="none">
<path d="M0 2000 l0 -2000 2000 0 2000 0 0 2000 0 2000 -2000 0 -2000 0 0
-2000z m1908 1548 l3 -68 74 0 75 0 0 70 0 70 533 -2 532 -3 3 -67 3 -68 74 0
75 0 0 -65 0 -65 75 0 75 0 -2 -477 -3 -478 -72 -3 -73 -3 0 -64 0 -65 -535 0
-535 0 0 65 0 65 -75 0 -75 0 0 70 0 70 -80 0 -80 0 0 65 0 65 -302 -2 -303
-3 -3 -197 -2 -198 -300 0 -300 0 0 65 0 64 -77 3 -78 3 -3 613 -2 612 687 -2
688 -3 3 -67z m-766 -1745 l3 -68 73 -3 72 -3 1 56 c1 30 2 61 3 68 1 9 131
13 608 15 l607 2 3 -67 3 -68 75 0 75 0 3 68 3 67 304 0 305 0 0 -65 0 -65 43
-1 c23 -1 56 -2 72 -3 l30 -1 3 -612 2 -613 -305 0 -305 0 0 70 0 70 -75 0
-75 0 0 -70 0 -70 -610 0 -609 0 -3 68 -3 67 -75 0 -75 0 -3 -67 -3 -68 -299
0 -299 0 -3 67 -3 68 -77 3 -78 3 0 609 0 610 305 0 304 0 3 -67z"/>
<path d="M690 3005 l0 -475 150 0 150 0 0 205 0 205 305 0 305 0 0 65 0 65
-302 2 -303 3 -3 138 -3 137 381 0 380 0 0 65 0 65 -530 0 -530 0 0 -475z"/>
<path d="M2210 3415 l0 -65 -75 0 -75 0 0 -140 0 -140 75 0 75 0 0 -65 0 -65
305 0 305 0 0 -140 0 -140 -227 2 -228 3 -1 23 c-1 12 -2 42 -3 67 l-1 45
-150 0 -150 0 0 -70 0 -70 75 0 75 0 0 -65 0 -65 380 0 380 0 0 65 0 64 78 3
77 3 0 135 0 135 -77 3 -78 3 0 64 0 65 -302 2 -302 3 -4 65 c-2 36 -1 98 3
138 l7 72 224 0 224 0 0 -70 0 -71 153 3 152 3 0 65 0 65 -77 3 -78 3 0 64 0
65 -380 0 -380 0 0 -65z"/>
<path d="M690 1258 l0 -478 150 0 150 0 0 205 0 205 230 0 230 0 0 -205 0
-205 150 0 150 0 0 474 0 474 -22 3 c-13 2 -80 3 -150 1 l-128 -3 0 -200 0
-199 -230 0 -230 0 -2 201 -3 200 -148 2 -147 2 0 -477z"/>
<path d="M2060 1257 l0 -478 153 3 152 3 2 270 2 270 71 3 70 3 0 -71 0 -70
80 0 80 0 0 70 0 70 75 0 75 0 0 -275 0 -275 155 0 155 0 0 475 0 475 -125 2
c-69 1 -137 2 -152 2 -28 1 -28 0 -31 -66 l-3 -68 -74 0 -74 0 -3 -67 -3 -68
-75 0 -75 0 -3 67 -3 67 -72 3 -72 3 3 57 c1 34 -2 59 -9 64 -6 3 -76 7 -155
8 l-144 1 0 -478z"/>
</g>
</svg>
