<?xml version="1.0" encoding="UTF-8" standalone="no"?>
<svg
   version="1.0"
   width="968.34088pt"
   height="299.05902pt"
   viewBox="0 0 968.34088 299.05902"
   preserveAspectRatio="xMidYMid"
   id="svg2560"
   sodipodi:docname="psf-logo.svg"
   inkscape:version="1.2.2 (1:1.2.2+202305151914+b0a8486541)"
   xmlns:inkscape="http://www.inkscape.org/namespaces/inkscape"
   xmlns:sodipodi="http://sodipodi.sourceforge.net/DTD/sodipodi-0.dtd"
   xmlns="http://www.w3.org/2000/svg"
   xmlns:svg="http://www.w3.org/2000/svg">
  <defs
     id="defs2564" />
  <sodipodi:namedview
     id="namedview2562"
     pagecolor="#ffffff"
     bordercolor="#000000"
     borderopacity="0.25"
     inkscape:showpageshadow="2"
     inkscape:pageopacity="0.0"
     inkscape:pagecheckerboard="0"
     inkscape:deskcolor="#d1d1d1"
     inkscape:document-units="pt"
     showgrid="false"
     inkscape:zoom="0.70891063"
     inkscape:cx="513.46388"
     inkscape:cy="251.79479"
     inkscape:window-width="1920"
     inkscape:window-height="1016"
     inkscape:window-x="0"
     inkscape:window-y="27"
     inkscape:window-maximized="1"
     inkscape:current-layer="svg2560" />
  <g
     id="g6214"
     inkscape:export-filename="../archytas.in/archytas.in/assets/images/brands/psf-logo.svg"
     inkscape:export-xdpi="22.306194"
     inkscape:export-ydpi="22.306194"
     transform="translate(-3.2031437,-75.940979)">
    <path
       d="m 447.7,200.6 c -1.5,1.5 -0.7,4.5 1.1,4.2 0.9,-0.2 1.7,-1.2 1.7,-2.2 0,-2 -1.6,-3.1 -2.8,-2 z"
       id="path2482"
       style="fill:#000000;stroke:none;stroke-width:0.1" />
    <path
       d="m 530.4,201.5 c -0.7,1.8 0.3,3.5 2.1,3.5 1.8,0 2.6,-2.5 1.2,-3.9 -1.5,-1.5 -2.7,-1.4 -3.3,0.4 z"
       id="path2486"
       style="fill:#000000;stroke:none;stroke-width:0.1" />
    <path
       d="m 542.9,186.7 c -1.3,1.6 -1.2,1.7 0.4,0.4 1.6,-1.3 2.1,-2.1 1.3,-2.1 -0.2,0 -1,0.8 -1.7,1.7 z"
       id="path2490"
       style="fill:#000000;stroke:none;stroke-width:0.1" />
    <path
       d="m 463.9,193.7 c -1.3,1.6 -1.2,1.7 0.4,0.4 1.6,-1.3 2.1,-2.1 1.3,-2.1 -0.2,0 -1,0.8 -1.7,1.7 z"
       id="path2504"
       style="fill:#000000;stroke:none;stroke-width:0.1" />
    <path
       d="m 546.5,194.1 c -0.4,0.6 -0.5,1.2 -0.2,1.5 0.2,0.3 0.7,-0.2 1,-1.1 0.7,-1.7 0.1,-2 -0.8,-0.4 z"
       id="path2508"
       style="fill:#000000;stroke:none;stroke-width:0.1" />
    <path
       d="m 522.9,217.7 c -1.3,1.6 -1.2,1.7 0.4,0.4 1.6,-1.3 2.1,-2.1 1.3,-2.1 -0.2,0 -1,0.8 -1.7,1.7 z"
       id="path2516"
       style="fill:#000000;stroke:none;stroke-width:0.1" />
    <g
       id="g4101"
       transform="translate(0,165)"
       style="fill:#2f82c4;fill-opacity:1">
      <path
         d="m 446.6,11.8 c -0.8,1.6 -1.8,5.2 -2.2,8 l -0.7,5.2 -4.6,-3.4 c -11.4,-8.4 -14.4,-3.8 -5.3,8.1 l 2.4,3.3 h -2.8 c -3.5,0 -10.4,1.8 -12.1,3.2 -2.9,2.3 1.2,5.1 9.3,6.4 4.3,0.6 6,0.8 10.9,1.3 0.6,0.1 1.7,3.9 2.3,8.6 1.4,9.2 2.7,13.1 4.8,13.9 1.9,0.7 4.2,-4.1 5.2,-10.5 l 0.7,-5.2 3,2.5 c 6.4,5.4 12.5,7.1 12.5,3.5 0,-0.7 -1.6,-3.9 -3.5,-7.2 -2,-3.2 -3.4,-5.9 -3.3,-5.9 1.4,-0.7 13.4,-3.3 13.7,-3 1,1 -2.3,17.8 -4.3,21.6 -1.2,2.4 -3.8,5.4 -6.1,6.9 -9.3,6.2 -31.4,11.6 -39.5,9.8 -10.3,-2.3 -18.6,-12.2 -19.7,-23.3 -0.5,-5.1 -0.5,-5.1 3.5,-7.3 5.3,-3 7.6,-7.9 7,-15 -0.4,-4.2 -1.1,-6 -3.3,-8.3 -5.3,-5.5 -16,-6.7 -23,-2.5 -9.6,5.6 -9.9,17.5 -0.7,23.9 l 4.2,2.9 v 7.4 c 0,9.5 -1.7,13.6 -6.8,16.2 -6.4,3.2 -22.5,5.1 -43.2,4.9 -15.6,-0.2 -19,0.1 -22,1.5 -4.4,2.1 -8.5,8.2 -10.9,16.2 -2.2,7 -5.6,26.3 -4.8,27.1 0.3,0.3 2.7,0.6 5.4,0.7 4.6,0.2 4.9,0 6.5,-3.3 0.9,-1.9 2.2,-6.4 2.7,-9.8 0.6,-3.5 1.8,-7.8 2.9,-9.5 5.7,-9.9 25.8,-14.4 38.7,-8.8 17.4,7.7 22.4,36.4 10.8,62.3 -3.3,7.5 -11.5,15.3 -32.3,30.8 l -15.8,11.7 1.6,2.6 c 0.9,1.5 2.4,2.7 3.3,2.7 2.3,0 18.3,-6.3 29.4,-11.4 5,-2.4 14.2,-7.5 20.5,-11.5 32.8,-20.6 51.4,-24.4 78.2,-16 3.9,1.3 7.9,3.3 9.6,5 3.2,3.1 7.6,13.9 9.1,22.2 0.5,2.6 1.1,5 1.4,5.3 0.3,0.3 2.2,0 4.4,-0.6 l 3.8,-1.2 v -14.6 c -0.1,-17.5 -1.4,-23.2 -5.9,-26.7 -4.3,-3.3 -13.5,-6 -31.3,-9.5 -8.4,-1.6 -16.5,-3.6 -18,-4.4 -8.6,-4.4 -11.3,-13.4 -7.7,-25.7 3.7,-12.5 6.7,-14.9 24.9,-20.4 17.9,-5.4 28,-11.8 32.5,-20.5 1.9,-3.6 3.3,-12.7 4.7,-28.5 0.5,-5.9 0.3,-7.4 -1.1,-8.8 -2.4,-2.3 -6.7,-2.2 -7.3,0.2 -0.4,1.7 -0.7,1.7 -3.3,0.4 -1.6,-0.7 -6.6,-1.9 -11.3,-2.5 l -8.4,-1.1 -1,-8.2 C 452.8,10.9 449.6,6.1 446.6,11.8 Z m 4.3,2.4 c 2.3,7.1 2.5,11.7 0.6,13.8 -1.8,2 -1.8,2 -4.2,-0.2 -2,-1.9 -2.3,-2.9 -1.8,-6.3 0.9,-5.6 2.5,-10.5 3.5,-10.5 0.5,0 1.3,1.5 1.9,3.2 z m -13.3,8.1 c 3.9,2.7 5,4 5.2,6.5 0.3,2.9 0.1,3.2 -2.5,3.2 -2.1,0 -3.6,-0.9 -5.4,-3.2 -7.5,-9.9 -6.3,-12.7 2.7,-6.5 z m 10.4,8.8 c 0,0.5 -0.7,0.9 -1.5,0.9 -0.9,0 -1.5,-0.9 -1.5,-2.1 0,-1.8 0.2,-1.9 1.5,-0.9 0.8,0.7 1.5,1.6 1.5,2.1 z m 4.7,0.6 c -0.3,0.3 -1.1,0.2 -1.7,-0.2 -0.8,-0.5 -0.7,-1.1 0.2,-2.2 1.2,-1.5 1.3,-1.4 1.6,0.1 0.2,1 0.1,2 -0.1,2.3 z m -10.1,3.9 c -0.5,1.4 -0.9,1.5 -1.9,0.5 -0.9,-0.9 -0.9,-1.4 0.3,-2.1 1.8,-1.1 2.4,-0.6 1.6,1.6 z m 8.7,-1.7 c 0.4,0.1 1.2,1.2 1.9,2.6 0.8,1.9 0.8,2.8 -0.2,4 -1.7,2.1 -6.7,1.9 -7.8,-0.3 -1.6,-3 0.7,-7.2 3.6,-6.7 0.9,0.2 2,0.4 2.5,0.4 z m -11.2,3.3 c 3.4,3.9 3.6,4.8 0.8,4.8 -1.9,0 -2,-0.2 -0.8,-1.8 1.2,-1.5 1.1,-1.4 -0.8,0.1 -1.7,1.5 -3.1,1.8 -6.5,1.2 C 426.9,40.6 422,39 422,38 c 0,-0.5 1.5,-1.3 3.3,-1.9 9.2,-2.8 11.4,-2.7 14.8,1.1 z M 458,35.5 c -1.2,1.5 -3,1.2 -3,-0.6 0,-0.5 1,-0.9 2.1,-0.9 1.8,0 1.9,0.2 0.9,1.5 z m 15.7,0.8 c 3.1,1.4 2.9,2.4 -0.9,3.5 -7.9,2.4 -10.9,2.4 -13.4,0.1 -2.3,-2.1 -2.3,-2.3 -0.7,-4.2 1.5,-1.6 2.6,-1.8 7.2,-1.2 3,0.4 6.5,1.2 7.8,1.8 z M 458,40.5 c 1,1.3 0.9,1.5 -0.9,1.5 -1.2,0 -2.1,-0.6 -2.1,-1.5 0,-0.8 0.4,-1.5 0.9,-1.5 0.5,0 1.4,0.7 2.1,1.5 z m 7.2,9.4 c 5,7.9 3.3,9.2 -5,3.6 -4.3,-2.9 -5.2,-4.1 -5.2,-6.5 0,-2.2 0.5,-2.9 2.3,-3.2 2.9,-0.5 4.4,0.7 7.9,6.1 z m -17.8,-5 c 0.3,0.5 -0.1,1.4 -0.9,2.1 -1.3,1 -1.5,0.9 -1.5,-0.9 0,-2.1 1.4,-2.8 2.4,-1.2 z m 5.6,0.7 c 0,1.7 -2.2,1.4 -2.8,-0.4 -0.2,-0.7 0.3,-1.2 1.2,-1.2 0.9,0 1.6,0.7 1.6,1.6 z m -0.5,8.6 c -0.7,5.5 -2.4,10.8 -3.5,10.8 -1,0 -2.6,-4.9 -3.5,-10.8 -0.5,-3.4 -0.3,-4.8 1,-6.2 1.6,-1.8 1.9,-1.8 4.2,-0.2 2.1,1.5 2.3,2.2 1.8,6.4 z"
         id="path2480"
         style="fill:#2f82c4;fill-opacity:1;stroke:none;stroke-width:0.1" />
      <path
         d="m 87.6,22.3 c -9.7,6 -9.9,17.9 -0.5,24.1 L 91,49 v 8.3 c 0,14 -2.8,16.4 -22.3,19.3 -8,1.2 -14.7,1.5 -23.3,1.1 -16.7,-0.8 -25.9,0.5 -29.7,4 -3.9,3.8 -6.2,8.6 -8.6,17.9 -2.1,8 -4.4,22.4 -3.8,23 0.2,0.2 2.4,0.7 5,1 4.4,0.6 4.7,0.5 6.6,-2.7 1.1,-1.8 2.3,-5.8 2.7,-8.8 1.6,-14.2 8.4,-20.3 25.1,-22.6 7.1,-0.9 15.3,1 20.9,4.8 11.7,8.1 16.2,28.3 10.8,49 -1.9,7.2 -6.2,16 -10.1,20.3 -3.9,4.2 -18.5,16 -30.4,24.5 -5.4,3.9 -10.1,7.5 -10.5,8 -0.3,0.5 0.3,2.2 1.2,3.8 l 1.7,2.9 8.1,-2.9 c 14.5,-5.4 28.6,-12.1 39.9,-19.1 13.9,-8.6 25.8,-15 32.2,-17.4 2.8,-0.9 5.2,-1.9 5.4,-2.1 0.3,-0.2 -3.2,-4 -7.8,-8.3 l -8.3,-8 7.8,-8.7 c 14.2,-15.6 15.2,-16.8 16.4,-21.3 0.7,-2.5 2.4,-6.9 3.8,-9.8 2.1,-4.4 3.4,-5.6 8.1,-7.9 l 5.5,-2.7 -3.9,-0.9 c -4.8,-0.9 -16.4,0.7 -20.8,2.9 -7.1,3.6 -10,7.9 -11.1,16.2 -0.9,6.8 -3.3,13 -5.7,14.2 -2.3,1.3 -7.1,1.3 -10.3,0 -2.2,-0.8 -2.6,-1.6 -2.6,-5.2 0,-5.8 3.4,-21.9 6.1,-29.2 1.3,-3.2 3.9,-7.6 5.8,-9.6 3,-3.2 4.6,-3.9 10.2,-4.9 3.6,-0.6 7.8,-1.1 9.3,-1.1 h 2.8 l -3.4,-2.8 c -5,-4.1 -6.6,-6.2 -8.8,-12 -3.1,-8.2 -2.7,-11.3 1.7,-13.7 9.2,-5.1 9.9,-20.8 1.1,-25.9 -1.8,-1.1 -5.7,-2.1 -9.7,-2.3 -5.7,-0.4 -7.1,-0.1 -10.5,2 z"
         id="path2488"
         style="fill:#2f82c4;fill-opacity:1;stroke:none;stroke-width:0.1" />
      <path
         d="m 171,23.1 c -1.4,0.6 -3.7,2.2 -5.1,3.5 -2.2,2.1 -2.9,2.3 -3.5,1.1 -1.3,-2 -4.8,-3.7 -7.9,-3.7 -3.9,0 -8.5,5 -8.5,9.3 0,6.7 7.8,11 14,7.7 1.5,-0.8 2.2,-0.4 3.9,2.6 1.1,1.9 3.4,4.3 5.1,5.2 2.1,1.2 3.2,2.7 3.6,5 0.8,4.3 0,12.9 -1.7,16.4 -3,6.6 -19.3,9.9 -48.1,9.6 -21.7,-0.1 -24.2,0.5 -28.7,7.7 -1.6,2.5 -3.8,8.1 -5,12.3 -2.4,9 -4.7,23.9 -3.8,24.8 0.3,0.4 2.6,0.9 5.1,1.1 l 4.6,0.6 1.9,-4.4 c 1,-2.4 2.2,-6.9 2.6,-9.9 0.4,-3 1.3,-6.7 2.1,-8.1 3.8,-7.4 14.4,-12.3 26.9,-12.3 7.1,0 14.5,1.8 14.5,3.5 0,0.9 -17.6,20.7 -35.4,39.9 -2.8,3 -5.9,6.5 -7,7.7 l -1.8,2.2 11.8,11.5 c 6.6,6.3 12,11.3 12,11.3 0.1,-0.1 4.4,-9.7 9.7,-21.2 15.6,-34.2 19.7,-42.8 20.3,-42.2 0.3,0.3 1.6,3.4 2.9,6.8 l 2.2,6.2 0.7,-4.9 c 1.3,-9 4.7,-19.8 7.9,-25.2 4.1,-6.8 8.3,-8.9 19.9,-9.8 l 8.8,-0.7 -3,-3.3 c -3.9,-4.6 -5.5,-7.8 -6.9,-14.4 -1.1,-4.9 -1,-5.6 0.5,-6.5 4.3,-2.5 8.4,-6.9 9.5,-10.2 1.4,-4.3 0.7,-10.4 -1.6,-13.9 C 190.1,23.2 178,20.3 171,23.1 Z"
         id="path2492"
         style="fill:#2f82c4;fill-opacity:1;stroke:none;stroke-width:0.1" />
      <path
         d="m 244,24.1 c -10.1,5.8 -10.6,18.2 -1.1,24.5 l 4.1,2.7 v 8.1 c 0,13.6 -3.2,16.5 -21,19.2 -5.9,0.8 -16.6,1.4 -28.1,1.3 -24.4,-0.1 -26.1,0.6 -31.5,11.7 -2.4,5.1 -5.6,18.2 -6.8,28 -0.6,4.8 -0.5,5.2 1.6,5.8 1.3,0.3 3.5,0.6 5.1,0.6 3.6,0 6.4,-4.5 7.3,-11.9 1.3,-11.4 5.7,-17.1 15.9,-20.6 6.1,-2 17.4,-2.4 23.4,-0.6 6,1.7 14.3,10.1 16.7,16.9 l 1.8,5.1 1.3,-6.2 c 3.3,-16.4 8.4,-26.6 14.8,-29.2 1.8,-0.8 7.6,-1.7 12.9,-2.1 9.3,-0.7 9.5,-0.7 7.3,-2.5 -3.7,-2.8 -7.8,-11.4 -8.4,-17.4 -0.5,-4.5 -0.3,-5.5 1,-5.5 2.6,0 8.6,-6.9 9.3,-10.6 0.9,-5 -0.1,-11.2 -2.3,-13.6 -4.9,-5.6 -16.8,-7.5 -23.3,-3.7 z"
         id="path2494"
         style="fill:#2f82c4;fill-opacity:1;stroke:none;stroke-width:0.1" />
      <path
         d="m 319,23.1 c -1.4,0.6 -3.7,2.2 -5.2,3.6 -1.6,1.5 -2.8,2.2 -2.8,1.5 0,-1.6 -5.3,-4.2 -8.5,-4.2 -3.5,0 -8.5,5 -8.5,8.5 0,3 1.6,6.5 3.9,8.2 1.9,1.5 7.6,1.7 10.1,0.3 1.5,-0.8 2.2,-0.4 3.9,2.6 1.1,1.9 3.4,4.3 5.1,5.2 3.6,2.1 4.5,5.7 3.5,14.6 -0.5,4.7 -1.3,7.1 -3,9 -4.6,4.9 -23,8.1 -43.5,7.4 -14.3,-0.5 -24.2,0.5 -27.6,2.7 -5.4,3.5 -11.2,19.7 -12.9,35.7 l -0.7,6.7 3.5,0.6 c 1.9,0.4 4.4,0.4 5.5,0.1 2.4,-0.8 4.7,-6.2 5.7,-13.6 0.9,-6.8 2.4,-9.8 6.9,-13.7 4.9,-4.4 12.6,-6.7 22.1,-6.7 6,0 8.9,0.5 11.7,1.9 l 3.7,2 -5.7,6 c -3.2,3.3 -12.2,13.2 -20.1,22 -8,8.8 -15.5,17.2 -16.9,18.7 l -2.4,2.6 11.8,11.5 c 6.6,6.4 11.9,11.5 12,11.4 0.2,-0.2 20.4,-44.4 25.2,-55.2 2,-4.4 3.7,-8.2 3.9,-8.4 0.6,-0.8 1.4,0.7 3.7,6.3 l 2.3,5.5 1.1,-7.6 c 1.4,-9 5.2,-20.2 8.4,-24.9 3.2,-4.7 8.9,-7.3 18.1,-8 l 7.7,-0.7 -2.5,-3.2 c -2.8,-3.7 -5.1,-9.3 -5.9,-14.6 -0.6,-3.3 -0.3,-3.7 3.1,-6 5.2,-3.4 7.5,-7 8,-12.6 0.6,-6.6 -1.9,-11.1 -7.7,-14.1 -4.7,-2.4 -12.5,-2.9 -17,-1.1 z"
         id="path2496"
         style="fill:#2f82c4;fill-opacity:1;stroke:none;stroke-width:0.1" />
      <path
         d="m 433.8,46.7 c -1.8,2.1 -3.1,4.3 -2.5,4.3 0.2,0 1.3,-1.4 2.5,-3 2.5,-3.3 2.4,-4.1 0,-1.3 z"
         id="path2510"
         style="fill:#2f82c4;fill-opacity:1;stroke:none;stroke-width:0.1" />
      <path
         d="m 166.5,53.7 c -2.3,10.8 -7,16.2 -17.9,20.8 l -6.1,2.6 6.9,-0.7 c 8.6,-0.7 16.1,-2.9 18.6,-5.4 3.5,-3.5 3.7,-18.6 0.3,-19.7 -0.7,-0.3 -1.5,0.8 -1.8,2.4 z"
         id="path2512"
         style="fill:#2f82c4;fill-opacity:1;stroke:none;stroke-width:0.1" />
      <path
         d="m 439.9,52.7 c -1.3,1.6 -1.2,1.7 0.4,0.4 0.9,-0.7 1.7,-1.5 1.7,-1.7 0,-0.8 -0.8,-0.3 -2.1,1.3 z"
         id="path2514"
         style="fill:#2f82c4;fill-opacity:1;stroke:none;stroke-width:0.1" />
      <path
         d="m 435.6,55.5 c -1.1,0.8 -1.5,1.5 -0.9,1.5 0.6,0 1.6,-0.7 2.3,-1.5 1.6,-1.9 1.1,-1.9 -1.4,0 z"
         id="path2520"
         style="fill:#2f82c4;fill-opacity:1;stroke:none;stroke-width:0.1" />
      <path
         d="m 239.5,71.2 c -5.3,3.9 -5.3,4 -1.8,2.7 3,-1 7.1,-4.5 6.2,-5.3 -0.2,-0.2 -2.2,1 -4.4,2.6 z"
         id="path2522"
         style="fill:#2f82c4;fill-opacity:1;stroke:none;stroke-width:0.1" />
      <path
         d="m 313.5,71.5 c -1.6,1.4 -2.5,2.5 -1.9,2.5 1,0 5.4,-3.7 5.4,-4.5 0,-0.8 -0.3,-0.6 -3.5,2 z"
         id="path2524"
         style="fill:#2f82c4;fill-opacity:1;stroke:none;stroke-width:0.1" />
      <path
         d="m 343.7,92 c -6.6,1.2 -13.3,4.6 -16.2,8.4 -1.5,2 -2.8,5.6 -3.5,10 -2.1,13.4 -4.4,16.2 -12.4,15.3 l -5.3,-0.5 -0.6,8.6 c -0.6,9.5 -3.9,20.4 -8,26.9 -1.4,2.1 -4.9,6.1 -7.8,8.8 -5.3,4.7 -29.7,23.4 -35.1,26.7 -3.4,2.1 -3.4,2.6 -0.5,6 l 2.2,2.7 15,-0.9 c 20.6,-1.3 35.6,-2.9 44.3,-4.6 6.2,-1.3 8,-2.1 11.1,-5.2 2,-2 9.2,-7.8 16.1,-12.7 16.4,-11.8 24.9,-20 28.9,-27.5 4.4,-8.3 4.1,-9.1 -4.5,-10.6 -12.7,-2.1 -18.4,-8.1 -18.4,-19.2 0,-6.8 3.6,-18.3 6.7,-21.3 1,-1 4.1,-2.9 6.8,-4.3 l 5,-2.5 -4.5,-1.9 C 357.4,91.7 350,90.9 343.7,92 Z"
         id="path2530"
         style="fill:#2f82c4;fill-opacity:1;stroke:none;stroke-width:0.1" />
      <path
         d="m 196.5,94.2 c -10.3,1.4 -18.7,7.4 -19.9,14.2 -2,11.3 -2.9,14.4 -4.5,16.6 -1.6,2.2 -2.6,2.5 -7.7,2.5 h -5.9 l -0.6,7.2 c -1.3,13.8 -7.1,26.5 -15.8,34.5 -3.1,2.9 -12.8,10.5 -21.6,17 -8.8,6.6 -16.1,12.2 -16.2,12.6 -0.2,0.4 0.7,1.9 2,3.4 l 2.2,2.6 15,-0.9 c 34.4,-2.1 51.3,-4.6 55.5,-8.4 1.4,-1.2 5.7,-4.4 9.5,-7.1 3.9,-2.7 7.7,-5.4 8.5,-6.1 21.9,-17.3 22.6,-18 26.8,-26.3 3.7,-7.3 5,-11 3.8,-11 -3.8,0 -16.7,-3.5 -19.2,-5.2 -7.8,-5.4 -9.6,-16.2 -4.8,-28.6 3,-7.7 4.4,-9.4 9.9,-12.1 l 4,-2 -3.5,-1.4 c -4.8,-2 -10.4,-2.5 -17.5,-1.5 z"
         id="path2532"
         style="fill:#2f82c4;fill-opacity:1;stroke:none;stroke-width:0.1" />
      <path
         d="m 269.2,94.1 c -6.4,1.1 -11.8,3.7 -15.4,7.6 -2.2,2.2 -3.1,4.7 -4.2,10.9 -2.3,13.3 -5,16.4 -13.1,15.1 l -3.3,-0.5 -0.7,6.1 c -1.6,15 -6.6,26.8 -14.5,34.5 -2.5,2.4 -12.3,10.2 -21.7,17.4 -9.5,7.1 -17.5,13.3 -17.8,13.7 -0.2,0.5 0.7,1.9 2.1,3.2 l 2.5,2.3 5.2,-1.8 c 17.6,-6.1 32.8,-13.7 51.7,-25.8 3,-2 9.7,-5.5 14.8,-7.9 l 9.3,-4.4 -10.2,-9.7 -10.1,-9.7 4.3,-5 c 2.4,-2.6 12.4,-13.7 22.3,-24.5 9.8,-10.8 17.7,-19.9 17.4,-20.1 -0.6,-0.6 -10.7,-2.5 -12.2,-2.4 -0.6,0.1 -3.5,0.5 -6.4,1 z"
         id="path2534"
         style="fill:#2f82c4;fill-opacity:1;stroke:none;stroke-width:0.1" />
      <path
         d="m 133.1,149.9 -4,8.6 7.7,0.7 c 4.2,0.4 8.2,1 8.9,1.2 0.7,0.3 1.9,-0.5 2.7,-1.7 1.8,-2.7 6,-13.6 5.5,-14.1 -0.2,-0.2 -4.1,-1 -8.6,-1.8 l -8.1,-1.5 z"
         id="path2540"
         style="fill:#2f82c4;fill-opacity:1;stroke:none;stroke-width:0.1" />
      <path
         d="m 280.2,151.7 c -2.3,5.3 -4.1,9.6 -4,9.7 0.2,0.1 4.5,0 9.6,-0.2 8.4,-0.3 9.4,-0.6 10.8,-2.6 1.4,-2.2 5.5,-12.9 5,-13.3 -0.3,-0.3 -15,-3.3 -16.1,-3.3 -0.5,0 -2.9,4.4 -5.3,9.7 z"
         id="path2542"
         style="fill:#2f82c4;fill-opacity:1;stroke:none;stroke-width:0.1" />
      <path
         d="m 403.2,169 c -10.3,4.9 -25.2,14 -25.2,15.3 0,0.5 0.6,0.7 1.3,0.4 0.6,-0.2 5,-0.1 9.6,0.3 7.8,0.7 8.7,1 11.3,3.9 1.6,1.8 3.1,4.5 3.5,6.2 0.3,1.6 1.1,2.9 1.8,2.9 2.8,0 8.4,-3.1 9,-4.9 1.8,-5.8 -0.1,-28.1 -2.4,-28.1 -0.4,0 -4.4,1.8 -8.9,4 z"
         id="path2548"
         style="fill:#2f82c4;fill-opacity:1;stroke:none;stroke-width:0.1" />
      <path
         d="m 255.5,170.8 c -11.2,5.4 -23.2,13 -21.4,13.6 0.8,0.3 4.5,0.6 8.3,0.8 6.6,0.4 7.1,0.6 10.1,4.1 l 3.2,3.7 6.2,-4.5 6.1,-4.5 -0.7,-5.8 c -0.8,-7.3 -1.7,-10.5 -2.9,-10.9 -0.5,-0.2 -4.5,1.4 -8.9,3.5 z"
         id="path2550"
         style="fill:#2f82c4;fill-opacity:1;stroke:none;stroke-width:0.1" />
    </g>
    <g
       id="g4081"
       transform="translate(0,165)"
       style="fill:#1d9649;fill-opacity:1">
      <path
         d="m 530.8,10.4 c -1.5,1.4 -3.8,9.5 -3.8,13.2 0,1.1 -1.1,0.7 -3.9,-1.5 C 518,18 513.1,16.2 512,18 c -1,1.7 -0.4,3.4 3.2,8.8 1.5,2.4 2.8,4.7 2.8,5.1 0,0.5 -2,1.1 -4.4,1.4 -10.6,1.5 -12.9,5.6 -4.6,8.1 2.8,0.8 7.7,1.8 11,2.2 3.3,0.4 6.1,1.2 6.1,1.8 0.1,0.6 0.3,2.1 0.4,3.3 0.5,5.2 1.6,11 2.6,14.1 0.9,2.6 1.6,3.2 3.2,3 1.8,-0.2 2.5,-1.5 3.8,-6.8 0.9,-3.6 2,-6.5 2.5,-6.5 0.5,0 2.7,1.2 4.9,2.7 8.8,6 12,3.1 6.1,-5.8 -2,-2.9 -3.6,-5.6 -3.6,-5.8 0,-0.2 2.1,-0.7 4.7,-1.1 2.6,-0.4 5.9,-1.3 7.3,-2 2.5,-1.3 2.6,-1.2 4.8,3.4 1.5,3.3 3.2,5.3 5.8,6.7 3.6,1.9 3.6,1.9 3.1,7.1 -1.1,10.9 -9.8,21 -19.7,23.2 -8.4,1.8 -30,-3.6 -39.5,-9.8 -5.6,-3.7 -8.1,-9.4 -10,-23 -0.8,-6.2 -1.8,-11.7 -2.1,-12.2 -0.9,-1.5 -5.2,-1 -7,0.8 -1.4,1.4 -1.5,2.9 -1.1,8.2 2.4,25.6 3.5,29.6 10.1,36.2 5.1,5.1 11.2,8.1 26.1,12.9 19.9,6.5 21.4,7.6 25.6,19.6 3.6,10.6 2.1,19.5 -4,24.7 -3.6,3 -9,4.7 -23.1,7.1 -13.9,2.4 -26.7,6.5 -30,9.6 -4.9,4.6 -8.8,21.1 -7.5,32.5 0.7,7 2,8.6 7.7,10 2.2,0.6 2.9,0.3 3.4,-1.1 1.4,-4.7 4,-8.7 6.5,-10 3.7,-1.9 26.2,-1.9 36.1,0 4.1,0.8 14.2,3.7 22.5,6.5 16.1,5.4 25.7,7.4 42.3,9.1 13.1,1.3 39.1,2.8 40.6,2.3 0.5,-0.2 1.8,-1.6 2.7,-3.2 l 1.7,-2.9 -4.3,-2.7 c -8.5,-5.7 -27.8,-20.7 -34.2,-26.6 -10.4,-9.7 -15.7,-23.3 -15.8,-39.9 -0.1,-11.7 3.9,-26.9 6.3,-24.4 0.4,0.5 5.1,10.3 10.3,21.9 5.3,11.6 11.7,25.6 14.4,31.3 l 4.8,10.3 11.7,-11.8 11.7,-11.8 L 635.5,120 C 610.7,92.8 611.3,94.1 621.7,92 c 8.8,-1.9 21.5,0.6 27.8,5.5 4.5,3.4 6.2,6.8 8,16.1 2.2,11.7 4.5,13.9 12.3,11.7 2.3,-0.5 2.3,-0.9 1.7,-6.7 -1.1,-9.4 -5.1,-24.1 -8.1,-29.6 -4.7,-8.6 -7.3,-9.4 -30.3,-9.1 -13.9,0.1 -23.9,-0.5 -34.8,-2.4 -1.2,-0.2 -4.2,-1.2 -6.7,-2.3 -6,-2.7 -7.6,-6 -7.6,-16 v -7.9 l 3.9,-2.6 c 2.1,-1.4 4.5,-4 5.2,-5.7 1,-2.1 1.9,-2.8 2.9,-2.3 0.8,0.3 3.2,0.8 5.2,1.1 3.2,0.3 4.2,-0.1 6.8,-2.6 4,-4.1 4,-8.3 0.1,-12.3 -3.8,-3.7 -8.7,-3.9 -12.8,-0.5 -2.7,2.3 -3,2.3 -4,0.7 -2.7,-4.4 -12.5,-6.3 -20.2,-4.1 -4.9,1.4 -9,5.7 -9.7,10.1 -0.6,3.6 -0.6,3.6 -3.5,2.2 -1.6,-0.8 -6.7,-1.9 -11.4,-2.6 -8,-1.1 -8.5,-1.3 -8.5,-3.6 0,-1.3 0.8,-3.4 1.8,-4.5 1.6,-1.9 1.6,-2 0,-0.7 -2.1,1.6 -2.3,1.2 -3.3,-6.1 -0.3,-2.6 -1.4,-5.7 -2.4,-6.9 -1.6,-2 -1.8,-2 -3.3,-0.5 z m 3.2,3.1 c 1.1,2.8 3.1,17.8 2.5,18.4 -0.2,0.2 -1.2,0.1 -2.1,-0.3 -1.4,-0.5 -1.4,-0.9 -0.3,-2.4 1.2,-1.5 1.2,-1.6 -0.2,-0.5 -1.3,1.1 -2,0.9 -3.7,-1 -2,-2.1 -2.1,-2.8 -1.2,-7.8 1.8,-9.7 3.1,-11.3 5,-6.4 z M 521.6,23 c 3.5,2.6 5.1,4.5 4.9,5.7 -0.2,1 -0.4,2.1 -0.4,2.5 -0.1,0.5 -1.3,0.8 -2.8,0.8 -2.2,0 -3.6,-1.2 -6.5,-5.1 -6.4,-8.8 -4.1,-10.6 4.8,-3.9 z m 9.4,8.1 c 0,0.5 -0.7,0.9 -1.5,0.9 -0.9,0 -1.5,-0.9 -1.5,-2.1 0,-1.8 0.2,-1.9 1.5,-0.9 0.8,0.7 1.5,1.6 1.5,2.1 z m -5,4 c 0,1.8 -0.2,2 -1.5,0.9 -1.3,-1.1 -1.3,-1.5 -0.3,-2.1 1.8,-1.2 1.8,-1.2 1.8,1.2 z m 9.2,-0.4 c 3.7,3.3 1.3,7.7 -3.9,7.1 -2.2,-0.2 -2.9,-0.9 -3.1,-3.1 -0.6,-5.1 3.3,-7.4 7,-4 z m -11.8,2.7 c 3.1,4.2 3.2,4.6 0.5,4.6 -1.9,0 -2,-0.2 -0.8,-1.8 1.2,-1.5 1.1,-1.4 -0.8,0.1 -1.7,1.5 -3.1,1.8 -6.5,1.2 C 509.9,40.6 505,39 505,38 c 0,-1.3 7.7,-3.5 13.6,-3.9 1.4,-0.1 3.1,1.2 4.8,3.3 z M 541,35.5 c -1.2,1.5 -3,1.2 -3,-0.6 0,-0.5 1,-0.9 2.1,-0.9 1.8,0 1.9,0.2 0.9,1.5 z m 15.7,0.6 c 4.6,1.7 1.6,3.8 -8.1,5.4 -3.1,0.5 -4.3,0.2 -6.2,-1.6 -2.3,-2.1 -2.3,-2.3 -0.7,-4.2 1.5,-1.6 2.6,-1.8 7.2,-1.2 3,0.4 6.5,1.1 7.8,1.6 z M 541,40.5 c 1,1.3 0.9,1.5 -0.9,1.5 -1.2,0 -2.1,-0.6 -2.1,-1.5 0,-0.8 0.4,-1.5 0.9,-1.5 0.5,0 1.4,0.7 2.1,1.5 z m -8.3,6.2 c 3.5,2.7 3.5,2.8 2.9,8.1 -0.4,3 -1.2,6.5 -1.9,7.9 -1.9,3.5 -3.3,1.4 -4.6,-6.7 -0.9,-5.6 -0.8,-6.7 0.7,-8.4 1.6,-2 1.6,-2 0,-0.7 -1.6,1.2 -1.8,1.1 -1.8,-0.8 0,-2.7 0.4,-2.7 4.7,0.6 z m 4.1,-1.6 c -0.2,0.6 -0.8,1 -1.3,1 -0.5,0 -1.1,-0.4 -1.3,-1 -0.2,-0.6 0.4,-1.1 1.3,-1.1 0.9,0 1.5,0.5 1.3,1.1 z m 10.5,3.5 c 6.5,9.3 5.1,11.1 -4,4.8 -4.3,-3 -5.3,-4.2 -5.3,-6.5 0,-2.6 0.4,-2.9 3,-2.9 2.5,0 3.7,0.9 6.3,4.6 z"
         id="path2484"
         style="fill:#1d9649;fill-opacity:1;stroke:none;stroke-width:0.1" />
      <path
         d="m 718.3,23.9 c -4.9,2.3 -7.3,5.5 -8,10.9 -1,7.1 2.6,13.3 10.1,17.7 1.5,0.9 1.6,1.6 0.5,6.5 -2.4,11.4 -9,19 -19,21.8 -2.6,0.8 0.3,1 12.1,1.1 18,0.2 22.1,0.9 26.2,4.8 3.7,3.5 5.6,7 8.4,15.8 2.2,6.9 2.2,7 3.5,4.2 0.7,-1.5 1.5,-2.7 1.8,-2.7 0.3,0 5.5,10.9 11.6,24.3 6,13.3 12.5,27.6 14.5,31.8 l 3.5,7.7 11.9,-11.4 11.9,-11.3 -2.4,-2.8 c -1.3,-1.6 -11.3,-12.6 -22.3,-24.6 -15.6,-17.1 -19.6,-22 -18.7,-23.1 2.2,-2.6 12.5,-4 20.2,-2.7 13.1,2.2 19.9,7.7 21.8,17.8 2.8,14.6 4.3,16.8 10.4,16 2.1,-0.3 4.1,-0.8 4.5,-1.1 0.9,-0.9 -1.4,-15.5 -3.9,-24.7 -1.1,-4.3 -3.4,-9.9 -5,-12.4 -4.6,-7.2 -7,-7.9 -28.7,-7.7 -19.3,0.2 -34.7,-1.4 -42.2,-4.4 -4.8,-2 -6.7,-5.1 -7.6,-12.7 -1,-8.1 0,-11.9 3.7,-14.1 1.7,-1 4,-3.4 5.1,-5.2 1.6,-2.8 2.3,-3.2 3.8,-2.4 2.5,1.4 8.2,1.2 10.1,-0.3 2.3,-1.7 3.9,-5.2 3.9,-8.2 0,-3.5 -5,-8.5 -8.5,-8.5 -3.2,0 -8.5,2.6 -8.5,4.2 0,0.7 -1.2,0 -2.7,-1.4 -5.4,-5.2 -14.4,-6.3 -22,-2.9 z"
         id="path2498"
         style="fill:#1d9649;fill-opacity:1;stroke:none;stroke-width:0.1" />
      <path
         d="m 870.5,23.1 c -6.5,2 -9.5,6.4 -9.5,14 0,6.6 2.6,11.3 7.7,13.8 3.8,1.9 4.1,4 1.8,11.8 -1.8,6 -8.1,13.5 -13.9,16.5 -9.6,4.9 -30.8,-0.1 -41.6,-9.8 l -3.9,-3.5 0.6,3.8 c 0.3,2.1 1,4.6 1.5,5.5 2.6,5.3 16.8,7.8 43.4,7.8 20.8,0 26.9,1 30.6,5.2 3.4,3.8 7.6,14 9.5,23.1 l 1.7,8.6 1.3,-5 c 0.7,-2.7 2,-6.4 3,-8.2 l 1.6,-3.2 3.3,7 c 3.4,7.2 17.8,38.7 23.3,51 l 3.2,6.9 11.4,-11.4 c 6.3,-6.3 11.5,-11.8 11.5,-12.2 0,-0.4 -7.7,-9.2 -17.1,-19.5 -9.4,-10.3 -19.4,-21.4 -22.1,-24.6 l -5,-5.7 3.3,-1.4 c 12.2,-5.1 31.4,-0.9 37.3,8.2 1.5,2.2 2.9,6.5 3.6,10.4 1.9,12.1 3.6,14.4 10.1,13.5 2.2,-0.3 4.2,-0.7 4.4,-0.9 0.2,-0.1 -0.3,-4.6 -1.1,-9.8 -1.8,-12.6 -6,-25.5 -9.6,-29.6 -4.5,-5.1 -8.1,-5.8 -27.9,-5.6 -18.2,0.2 -34.8,-1.5 -41.2,-4.2 -6,-2.5 -7.2,-4.8 -7.5,-15.1 l -0.4,-9.4 3.6,-2.3 c 1.9,-1.3 4.3,-3.8 5.3,-5.6 1.8,-3.3 2.8,-3.9 3.8,-2.2 1,1.7 8.1,1.1 10.4,-0.8 3.1,-2.5 4.2,-7.2 2.6,-11 -2.4,-5.7 -9.2,-7 -14.3,-2.7 l -2.9,2.5 -1.9,-2.1 c -4.2,-4.6 -12.2,-6.2 -19.9,-3.8 z"
         id="path2500"
         style="fill:#1d9649;fill-opacity:1;stroke:none;stroke-width:0.1" />
      <path
         d="m 650.7,27.2 c -12.4,3.3 -14.4,20.9 -3.1,27.7 4.3,2.5 4.4,2.7 3.8,6.6 -0.3,2.2 -1.8,6.6 -3.3,9.8 -3.1,6.5 -3.7,5.8 5.4,7.2 5.3,0.9 8.6,3.4 11.7,9.2 5,9.1 10.5,36 8,38.5 -0.6,0.6 -3.5,1.3 -6.4,1.6 -4.3,0.3 -5.6,0 -6.9,-1.4 -2.2,-2.4 -4.9,-10.6 -4.9,-14.5 0,-10.3 -10.2,-17.8 -24.7,-18.2 -7,-0.2 -13.6,1 -13.1,2.5 0.2,0.5 3.4,4.2 7.1,8.1 11,11.8 35.2,38.8 35.6,39.9 0.2,0.6 -4.5,5.9 -10.4,11.8 l -10.7,10.8 5.3,1.7 c 7.8,2.5 21.2,9.5 35.2,18.2 12.2,7.7 24.9,13.8 40.1,19.4 l 8.1,3 2.3,-2.6 c 1.2,-1.4 2.2,-2.9 2.2,-3.3 0,-0.4 -2.4,-2.3 -5.2,-4.2 -9,-6.1 -29.1,-21.9 -34.4,-27 -9.3,-9.1 -14.4,-22.8 -14.4,-38.9 0.1,-24.5 10.3,-37.1 29.9,-37.1 8.4,0 15.5,2.1 21,6 4.8,3.5 5.9,5.7 7.7,15.9 1.9,10.5 3.2,12.1 9.6,12.1 h 5.1 l -0.7,-6.3 c -2,-19.3 -7.8,-33.9 -15,-37.9 C 734.2,85 724.8,84.3 708,83.9 667.6,82.8 663.2,80.7 663.1,62.8 L 663,56 l 3.9,-2.6 c 6.2,-4.1 9,-12.9 6,-18.6 -3.8,-7.2 -12.6,-10.1 -22.2,-7.6 z"
         id="path2502"
         style="fill:#1d9649;fill-opacity:1;stroke:none;stroke-width:0.1" />
      <path
         d="m 798.4,27.9 c -7.7,2 -12.4,7.6 -12.4,14.9 0,4.7 4.1,11.4 8.3,13.5 2,1 3.7,2.4 3.7,3.1 0,2.7 -3.1,12.8 -4.6,15.1 -0.9,1.4 -1.2,2.5 -0.8,2.5 4.5,0.1 14,2.2 16,3.5 5.3,3.5 10.4,15.1 13,30 2.7,15.3 1.9,17.5 -6.3,17.5 -6.6,0 -9.2,-3.8 -11.2,-16.7 -1.2,-7.9 -3.1,-10.7 -9.4,-13.8 -8.9,-4.3 -21.1,-5.3 -27,-2.3 -1.9,1 -1.2,1.8 25.4,30.8 15.1,16.5 16.8,18.5 16.9,19 0,0.3 -5.2,5.4 -11.5,11.4 -6.3,5.9 -11.5,11.1 -11.5,11.5 0,0.5 1.9,1.3 4.3,2 5.8,1.7 22,10.3 35.2,18.6 6.1,3.8 15.5,8.9 21,11.3 9.9,4.4 25,10.2 26.4,10.2 0.3,0 1.4,-1.3 2.4,-2.9 l 1.7,-3 -17.2,-12.9 C 835.1,172 829.3,165 825.5,148.6 c -3.1,-12.9 -1.2,-30.8 3.9,-38.6 5.7,-8.5 11.7,-12.2 21.5,-12.8 11.7,-0.8 23.5,3.3 28.1,9.8 1.1,1.6 2.7,6.3 3.5,10.5 1.5,7.8 3.6,13 5.5,13.7 0.6,0.2 2.9,0.2 5.2,0 l 4,-0.4 -0.6,-6.8 c -1.1,-10.4 -4.3,-22.7 -7.7,-29.1 -4.8,-9 -5.7,-9.2 -34.9,-10 -37.7,-0.9 -43.3,-3 -44.6,-16.4 -0.9,-8.7 0.1,-11.8 4.5,-14.9 4.5,-3.2 6.1,-6.2 6.1,-11.8 0,-9.9 -10.6,-16.7 -21.6,-13.9 z"
         id="path2506"
         style="fill:#1d9649;fill-opacity:1;stroke:none;stroke-width:0.1" />
      <path
         d="m 586.1,58.8 c -0.1,7 1.7,12.5 4.7,14.1 3.2,1.7 3.4,1.3 1.3,-1.7 -1.8,-2.3 -3.2,-6.8 -5.4,-16.7 -0.3,-1.1 -0.5,0.8 -0.6,4.3 z"
         id="path2518"
         style="fill:#1d9649;fill-opacity:1;stroke:none;stroke-width:0.1" />
      <path
         d="m 666,72.1 c 0,0.4 1,1.9 2.3,3.4 1.6,1.8 4.1,2.9 9.2,4 8.9,1.9 13.9,1.8 7,0 -2.7,-0.8 -8,-2.9 -11.7,-4.8 -3.8,-1.8 -6.8,-3 -6.8,-2.6 z"
         id="path2526"
         style="fill:#1d9649;fill-opacity:1;stroke:none;stroke-width:0.1" />
      <path
         d="m 691.3,81.7 c 0.9,0.2 2.5,0.2 3.5,0 0.9,-0.3 0.1,-0.5 -1.8,-0.5 -1.9,0 -2.7,0.2 -1.7,0.5 z"
         id="path2528"
         style="fill:#1d9649;fill-opacity:1;stroke:none;stroke-width:0.1" />
      <path
         d="m 698.7,99.1 -2.8,1.1 2,2.2 c 3.4,3.6 7.1,14.9 7.1,21.7 0,11.2 -5,16.8 -17.3,19.1 -3.7,0.7 -6.7,1.8 -6.7,2.4 0,1.8 3.6,11.6 5.8,15.9 1.1,2.2 3.9,5.9 6.2,8.3 4.1,4.1 20.7,17.4 30,23.9 7.1,5 18.4,7.2 47,9.3 8,0.5 17.3,1.2 20.8,1.5 5.9,0.4 6.5,0.2 8.8,-2.2 1.3,-1.5 2.3,-3 2.2,-3.4 -0.2,-0.4 -7.5,-6.1 -16.3,-12.7 -20,-14.9 -25,-19.3 -29,-25.7 -3.7,-5.8 -7.1,-15.7 -8.1,-23.3 -0.7,-5.3 -0.7,-5.4 -3.6,-4.8 -2.4,0.5 -3.5,0 -5.7,-2.2 -2.6,-2.6 -3.7,-6.2 -5.6,-17.4 -1.4,-8.5 -10.5,-13.9 -24,-14.4 -4.4,-0.2 -9.3,0.1 -10.8,0.7 z"
         id="path2536"
         style="fill:#1d9649;fill-opacity:1;stroke:none;stroke-width:0.1" />
      <path
         d="m 846.8,99.5 c -0.4,0.4 0.3,2.1 1.7,3.6 5.7,6.9 8.8,21.1 6.1,28.2 -2.9,7.6 -7.6,10.6 -20.3,12.7 -4,0.6 -7.3,1.5 -7.3,1.9 0,1.9 3.5,12.1 5.5,16.1 1.3,2.5 4,6.3 6.1,8.4 4.8,4.9 22.6,19 27.9,22.2 9.3,5.4 31.9,9.3 65.5,11.3 l 15.5,0.9 2.3,-2.4 c 1.2,-1.4 2.2,-2.9 2.2,-3.3 0,-0.4 -7.6,-6.5 -17,-13.5 -28.7,-21.6 -31.9,-26 -36.5,-50 -0.6,-2.8 -0.8,-2.8 -5.3,-2.3 -2.6,0.3 -5.5,0.1 -6.4,-0.4 -2.7,-1.5 -4.8,-6.3 -6.4,-14.7 -1.8,-9.5 -3.4,-11.9 -10.7,-15.6 -4.4,-2.2 -7.5,-2.9 -13.9,-3.3 -4.6,-0.3 -8.6,-0.2 -9,0.2 z"
         id="path2538"
         style="fill:#1d9649;fill-opacity:1;stroke:none;stroke-width:0.1" />
      <path
         d="m 617.5,147.7 c -1.1,0.2 -4.4,0.9 -7.3,1.4 -5.1,1 -5.3,1.2 -4.7,3.6 0.7,3.1 4.6,9.3 7,11.3 2,1.6 17.5,2.2 17.5,0.6 0,-2.2 -8,-17.6 -9.2,-17.5 -0.7,0.1 -2.2,0.3 -3.3,0.6 z"
         id="path2544"
         style="fill:#1d9649;fill-opacity:1;stroke:none;stroke-width:0.1" />
      <path
         d="m 767.4,148 c -1.1,0.4 -4.6,1.1 -7.8,1.5 -6.4,0.8 -6.5,1.3 -2,9.1 4,6.8 5.3,7.6 14.3,7.9 4.5,0.1 8.1,0 8.1,-0.4 0.1,-1.8 -8.5,-19.1 -9.4,-19 -0.6,0 -2,0.4 -3.2,0.9 z"
         id="path2546"
         style="fill:#1d9649;fill-opacity:1;stroke:none;stroke-width:0.1" />
      <path
         d="m 639.6,172.2 c -1.3,6.5 -1.4,11.6 -0.3,13.1 0.7,0.9 3.4,3.2 6.1,5.1 l 4.9,3.5 2.1,-3.2 c 2.8,-4.2 5.8,-5.5 12.9,-5.8 3.1,-0.1 5.7,-0.4 5.7,-0.5 0,-0.8 -15,-8.9 -21.2,-11.5 -8.5,-3.5 -9.6,-3.6 -10.2,-0.7 z"
         id="path2552"
         style="fill:#1d9649;fill-opacity:1;stroke:none;stroke-width:0.1" />
      <path
         d="m 789.6,173.6 c -0.3,0.8 -0.6,4.1 -0.6,7.2 0.1,5.6 0.2,5.8 4.5,9 6.3,4.6 6.8,4.6 8.8,1.2 2.1,-3.5 6.4,-6 10.3,-6 4.2,0 1.6,-2.1 -8.9,-7.3 -11.6,-5.7 -13.3,-6.2 -14.1,-4.1 z"
         id="path2554"
         style="fill:#1d9649;fill-opacity:1;stroke:none;stroke-width:0.1" />
      <path
         d="m 569.6,198.4 c 0.7,1.9 9.1,4.8 10,3.4 0.8,-1.3 -0.4,-2.3 -4.5,-3.7 -4.5,-1.5 -6.2,-1.4 -5.5,0.3 z"
         id="path2556"
         style="fill:#1d9649;fill-opacity:1;stroke:none;stroke-width:0.1" />
    </g>
  </g>
  <text
     xml:space="preserve"
     style="font-style:normal;font-variant:normal;font-weight:bold;font-stretch:normal;font-size:122.7px;font-family:Ubuntu;-inkscape-font-specification:'Ubuntu, Bold';font-variant-ligatures:normal;font-variant-caps:normal;font-variant-numeric:normal;font-variant-east-asian:normal;fill:#333333;fill-opacity:1;stroke-width:10.225"
     x="370.67313"
     y="91.066406"
     id="text299"><tspan
       sodipodi:role="line"
       id="tspan297"
       style="font-style:normal;font-variant:normal;font-weight:bold;font-stretch:normal;font-size:122.7px;font-family:Ubuntu;-inkscape-font-specification:'Ubuntu, Bold';font-variant-ligatures:normal;font-variant-caps:normal;font-variant-numeric:normal;font-variant-east-asian:normal;fill:#333333;fill-opacity:1;stroke-width:10.225"
       x="370.67313"
       y="91.066406">PSF</tspan></text>
</svg>
